<?xml version="1.0" encoding="UTF-8" standalone="no"?>
<!-- Created with Inkscape (http://www.inkscape.org/) -->

<svg
   width="1080"
   height="1080"
   viewBox="0 0 285.75 285.75001"
   version="1.1"
   id="svg5"
   inkscape:version="1.2.1 (9c6d41e410, 2022-07-14)"
   sodipodi:docname="avatar1.svg"
   xml:space="preserve"
   xmlns:inkscape="http://www.inkscape.org/namespaces/inkscape"
   xmlns:sodipodi="http://sodipodi.sourceforge.net/DTD/sodipodi-0.dtd"
   xmlns:xlink="http://www.w3.org/1999/xlink"
   xmlns="http://www.w3.org/2000/svg"
   xmlns:svg="http://www.w3.org/2000/svg"><sodipodi:namedview
     id="namedview7"
     pagecolor="#ffffff"
     bordercolor="#000000"
     borderopacity="0.25"
     inkscape:showpageshadow="2"
     inkscape:pageopacity="0.0"
     inkscape:pagecheckerboard="0"
     inkscape:deskcolor="#d1d1d1"
     inkscape:document-units="mm"
     showgrid="false"
     inkscape:zoom="0.64693624"
     inkscape:cx="346.24742"
     inkscape:cy="576.56378"
     inkscape:window-width="2560"
     inkscape:window-height="1334"
     inkscape:window-x="-11"
     inkscape:window-y="-11"
     inkscape:window-maximized="1"
     inkscape:current-layer="g245" /><defs
     id="defs2"><linearGradient
       inkscape:collect="always"
       id="linearGradient5889"><stop
         style="stop-color:#d18777;stop-opacity:0.99744898;"
         offset="0"
         id="stop5885" /><stop
         style="stop-color:#626be8;stop-opacity:0.90561223;"
         offset="1"
         id="stop5887" /></linearGradient><linearGradient
       inkscape:collect="always"
       id="linearGradient4829"><stop
         style="stop-color:#8d8d8d;stop-opacity:1;"
         offset="0"
         id="stop4825" /><stop
         style="stop-color:#dbdbdb;stop-opacity:1;"
         offset="1"
         id="stop4827" /></linearGradient><linearGradient
       inkscape:collect="always"
       id="linearGradient3263"><stop
         style="stop-color:#ffffff;stop-opacity:1;"
         offset="0"
         id="stop3259" /><stop
         style="stop-color:#4762ce;stop-opacity:1;"
         offset="1"
         id="stop3261" /></linearGradient><radialGradient
       inkscape:collect="always"
       xlink:href="#linearGradient3263"
       id="radialGradient3265"
       cx="-239.16165"
       cy="93.842743"
       fx="-239.16165"
       fy="93.842743"
       r="7.3743911"
       gradientUnits="userSpaceOnUse"
       gradientTransform="translate(-98.154957,-2.862853)" /><radialGradient
       inkscape:collect="always"
       xlink:href="#linearGradient3263"
       id="radialGradient3269"
       gradientUnits="userSpaceOnUse"
       cx="-239.16165"
       cy="93.842743"
       fx="-239.16165"
       fy="93.842743"
       r="7.3743911"
       gradientTransform="translate(-40.488918,-3.1695872)" /><linearGradient
       inkscape:collect="always"
       xlink:href="#linearGradient4829"
       id="linearGradient4831"
       x1="-289.20142"
       y1="244.51233"
       x2="-110.12292"
       y2="169.66917"
       gradientUnits="userSpaceOnUse"
       gradientTransform="translate(-98.154959,-2.862853)" /><radialGradient
       inkscape:collect="always"
       xlink:href="#linearGradient5889"
       id="radialGradient5891"
       cx="142.875"
       cy="142.875"
       fx="142.875"
       fy="142.875"
       r="142.875"
       gradientUnits="userSpaceOnUse" /></defs><g
     inkscape:groupmode="layer"
     id="layer2"
     inkscape:label="bkg"><rect
       style="fill:url(#radialGradient5891);fill-opacity:1;stroke:none;stroke-width:3.17905;stroke-linecap:round;stroke-linejoin:bevel;stroke-dasharray:none;stroke-opacity:1"
       id="rect5840"
       width="285.75"
       height="285.75"
       x="0"
       y="0" /></g><g
     inkscape:label="Layer 1"
     inkscape:groupmode="layer"
     id="layer1"><g
       id="g245"
       transform="translate(447.09056,26.027264)"><ellipse
         style="fill:#c19a40;fill-opacity:1;stroke-width:5.689"
         id="path465"
         cx="-306.81079"
         cy="90.327271"
         rx="68.299492"
         ry="88.952934" /><path
         style="fill:#ffffff;fill-opacity:1;stroke-width:4.98499"
         d="m -355.27478,81.431966 1.53367,12.064881 4.80551,4.19203 5.52121,1.63592 5.31673,1.022453 5.93019,-0.613473 11.04244,-1.73816 c 0,0 -1.32918,-4.49877 -1.53367,-4.907749 -0.20449,-0.40898 -4.90775,-5.214483 -4.90775,-5.214483 0,0 -8.38407,-2.965098 -9.8155,-3.374078 -1.43142,-0.408977 -9.71325,-2.965095 -9.71325,-2.965095 z"
         id="path3059" /><path
         style="fill:#ffffff;fill-opacity:1;stroke-width:4.98499"
         d="m -298.93792,95.235006 5.41897,-6.339173 14.92773,-5.623462 20.03997,-3.578566 -4.70326,9.713251 -2.24938,6.543664 -4.601,2.658367 -8.99755,1.431423 -12.26937,-1.022443 -3.78306,-0.92021 z"
         id="path3178" /><circle
         style="fill:url(#radialGradient3269);fill-opacity:1;stroke-width:4.98499"
         id="circle3267"
         cx="-279.65057"
         cy="90.673157"
         r="7.3743911" /><circle
         style="fill:url(#radialGradient3265);fill-opacity:1;stroke-width:4.98499"
         id="path3232"
         cx="-337.31662"
         cy="90.979889"
         r="7.3743911" /><path
         style="fill:#111112;stroke-width:0.352778"
         d="m -377.64688,158.60151 c 0.63948,0 1.32001,-0.19844 1.51231,-0.44097 0.19229,-0.24254 0.947,-3.26677 1.67712,-6.72052 l 1.3275,-6.27954 -2.00391,-14.88712 c -1.10215,-8.18792 -2.11523,-15.15984 -2.25129,-15.49316 -0.2147,-0.52597 -0.59695,-0.37663 -2.89321,1.13033 -1.45521,0.955 -2.76955,1.74366 -2.92075,1.75256 -0.1512,0.009 -0.26035,-16.09692 -0.24256,-35.790751 0.0178,-19.693818 0.16352,-35.806942 0.32384,-35.806942 0.16033,0 0.40117,-0.584574 0.5352,-1.299054 1.18916,-6.338729 6.27577,-18.919309 9.62169,-23.797037 0.58049,-0.846246 1.53932,-2.491129 2.13073,-3.655296 1.22478,-2.410939 2.49235,-4.203015 5.6255,-7.953286 2.12184,-2.5397559 8.14785,-8.59658288 9.98915,-10.04023788 4.22846,-3.31527502 10.85843,-6.67479522 17.15233,-8.69138222 2.49035,-0.7979159 4.68667,-1.5742919 4.8807,-1.7252739 0.57135,-0.444602 4.00731,-1.305013 7.23194,-1.810981 4.78943,-0.751495 22.76444,-0.642802 27.69305,0.167457 4.54225,0.746738 3.24549,0.450977 13.40556,3.0575244 12.92742,3.3165025 16.16563,4.4130698 17.51361,5.9306879 1.59051,1.7906538 4.07642,5.5372558 5.02067,7.5668258 1.00856,2.167798 1.5291,2.56076 4.80599,3.6281389 7.31225,2.381811 14.1248,8.593535 18.24411,16.635065 1.17529,2.294365 2.39748,5.084385 2.71597,6.200045 0.31849,1.115659 0.71249,2.028472 0.87555,2.028472 0.16306,0 0.38194,0.595312 0.4864,1.322916 0.10447,0.727605 1.56688,9.339792 3.2498,19.138194 l 3.05986,17.815276 0.10826,8.643055 c 0.0658,5.252251 0.26227,9.032665 0.50082,9.636155 0.25465,0.64421 0.39256,4.40218 0.39256,10.696736 0,7.822933 -0.0952,9.798853 -0.49132,10.194953 -0.41992,0.41991 -0.52246,0.3778 -0.70555,-0.28978 -0.13994,-0.51026 -0.30621,-0.63949 -0.4795,-0.37271 -0.17694,0.27239 -1.14512,-0.34059 -2.90694,-1.84046 -2.3652,-2.01353 -2.66832,-2.17678 -2.8965,-1.55996 -0.14016,0.3789 -0.10594,7.23961 0.0761,15.24602 0.305,13.41749 0.4302,15.35801 1.59915,24.78766 0.69753,5.62681 1.40131,10.56344 1.56397,10.97029 0.24141,0.60387 0.70657,0.78037 2.53276,0.96101 1.23037,0.12171 2.8297,0.39087 3.55406,0.59814 -52.66594,53.44673 -100.38412,79.04621 -151.61473,0.34695 z m 86.12493,-1.14653 c -0.62262,-3.07947 -0.95471,-6.40361 -0.95156,-9.525 0.002,-1.89177 -0.0576,-3.43958 -0.13217,-3.43958 -0.0746,0 -1.4254,0.47555 -3.00178,1.05678 -1.57638,0.58123 -2.76847,0.89873 -2.64908,0.70556 0.11939,-0.19318 0.36494,-0.35123 0.54567,-0.35123 1.25921,0 10.32462,-4.59324 14.28323,-7.237 3.97339,-2.65363 12.27782,-10.84708 15.191,-14.988 2.47159,-3.51323 4.72775,-7.17628 4.72775,-7.67587 0,-0.19339 0.21742,-0.53207 0.48316,-0.75261 0.26573,-0.22053 0.75143,-1.15278 1.07933,-2.07166 0.3279,-0.91888 0.73669,-1.93227 0.90842,-2.25198 0.73013,-1.35926 3.21015,-8.49808 4.0262,-11.589543 1.01568,-3.847706 1.62684,-8.307426 1.59414,-11.632426 -0.0271,-2.756491 -0.75091,-6.440712 -1.30137,-6.624199 -0.66753,-0.222507 -1.41146,1.393928 -1.66436,3.616339 -0.43441,3.81763 -1.7731,7.23799 -3.56255,9.10235 -2.69433,2.80712 -6.00143,4.772186 -9.77047,5.805556 -1.76,0.482553 -3.57387,0.593763 -9.07861,0.556603 -6.00494,-0.0405 -7.3499,-0.15822 -10.58333,-0.926063 -4.02601,-0.95606 -5.92403,-1.60157 -4.82128,-1.6397 0.35573,-0.0123 1.86386,0.28714 3.35139,0.66542 2.91151,0.74039 10.10279,1.60281 11.204,1.34365 0.64901,-0.15274 0.64785,-0.1686 -0.0327,-0.44792 -3.35667,-1.37764 -6.11117,-5.456656 -5.70177,-8.443496 0.13225,-0.96472 0.082,-1.60668 -0.12579,-1.60668 -0.19032,0 -0.34603,-0.24115 -0.34603,-0.53588 0,-0.99698 -3.00123,0.15014 -5.87634,2.24604 -1.21598,0.88642 -5.30313,6.14361 -5.89716,7.585346 -0.35456,0.86054 -0.91583,-0.70003 -0.9211,-2.561046 -0.005,-1.70296 1.39464,-8.607126 2.11588,-10.438624 0.7545,-1.91595 1.75899,-3.952787 2.26168,-4.586111 0.53084,-0.668764 0.54035,-0.650642 0.18238,0.347571 -0.34763,0.969408 -0.97936,3.545123 -1.731,7.057704 -0.16571,0.77443 -0.2117,1.55303 -0.1022,1.7302 0.1095,0.17718 0.0158,0.20888 -0.20819,0.0704 -0.26839,-0.16587 -0.40729,0.0644 -0.40729,0.67528 0,0.90874 0.0399,0.89311 2.02848,-0.79402 2.55408,-2.16696 7.07491,-5.071584 9.63878,-6.192906 2.38809,-1.044441 6.02578,-2.084817 10.73413,-3.069953 1.94028,-0.405969 4.27398,-0.902356 5.186,-1.103086 0.91202,-0.200731 4.16639,-0.794491 7.23194,-1.319474 l 5.57373,-0.954507 -0.11806,-1.188508 c -0.19731,-1.986397 -1.62357,-5.741808 -2.99473,-7.885282 -0.71331,-1.115084 -1.29693,-2.160266 -1.29693,-2.322625 0,-0.162355 -0.55563,-1.022876 -1.23473,-1.912264 -0.67909,-0.889384 -1.23472,-1.914387 -1.23472,-2.277783 0,-0.363393 -0.4877,-1.12698 -1.08379,-1.696858 -1.07711,-1.029761 -5.73025,-7.806537 -6.7864,-9.883633 -0.30381,-0.59751 -1.21861,-2.97876 -2.03287,-5.291666 -1.24703,-3.542153 -1.52559,-4.845022 -1.7665,-8.262228 -0.31968,-4.534454 -1.03243,-9.056609 -1.56265,-9.914473 -0.62058,-1.004083 -1.80574,-1.36119 -5.23216,-1.576529 -7.16226,-0.450123 -10.84801,1.36458 -17.96497,8.845169 -6.43102,6.759606 -12.94551,13.173511 -16.18235,15.932501 -3.48076,2.966897 -5.43121,4.105406 -10.44438,6.096565 -1.59911,0.635141 -2.83461,1.272684 -2.74557,1.416759 0.089,0.144074 2.0106,0.705604 4.27011,1.247841 l 4.10822,0.985887 -0.23633,2.088903 c -0.35221,3.113045 -0.40471,3.18594 -2.08995,2.90122 -0.79642,-0.134553 -2.08512,-0.469791 -2.8638,-0.744972 -2.25849,-0.798145 -9.57642,-2.584428 -10.58771,-2.584428 -1.23218,0 -7.96778,1.349791 -8.66804,1.737042 -0.30462,0.168462 -1.53239,0.556983 -2.72837,0.863378 -2.20557,0.56504 -4.39426,1.757965 -6.15457,3.354486 -1.1608,1.052794 -1.19597,1.850767 -0.30513,6.921482 0.55693,3.170054 0.70667,3.555354 1.47669,3.79972 0.4713,0.149567 4.19067,1.063064 8.26525,2.029992 14.63525,3.473058 16.43241,4.191712 21.06008,8.42157 1.47828,1.3512 2.20161,2.3492 2.73403,3.77221 0.97401,2.60327 0.91454,2.85564 -0.33699,1.43022 -1.01982,-1.16152 -5.54713,-4.10788 -6.31206,-4.10788 -0.22096,0 -0.2876,0.41438 -0.16513,1.02675 0.49889,2.49446 -1.55062,5.94365 -4.34371,7.310176 -2.85761,1.39811 -5.063,1.30096 -7.62154,-0.33572 -3.17227,-2.029276 -4.08323,-4.562816 -3.43752,-9.560376 0.19853,-1.536642 0.29379,-2.861082 0.21167,-2.943202 -0.0821,-0.08212 -0.41084,0.35645 -0.7305,0.974594 -0.78244,1.513078 -1.06185,1.113462 -0.37344,-0.534119 0.30241,-0.723763 0.54983,-1.362696 0.54983,-1.419849 0,-0.235162 -6.35271,-1.573809 -7.4687,-1.573809 h -1.20775 l 0.25224,2.640735 c 0.30305,3.17264 0.70138,4.47152 2.43577,7.9426 1.50892,3.01984 3.25617,4.527346 6.61884,5.710696 4.83183,1.700343 14.22594,1.382493 22.56474,-0.7635 0.84764,-0.21813 1.14653,-0.17797 1.14653,0.15408 0,0.29544 -0.99589,0.58424 -2.91042,0.844 -1.60073,0.21719 -3.94229,0.55619 -5.20347,0.75334 -6.28596,0.982613 -7.76534,1.109923 -10.23056,0.880423 -2.75582,-0.25656 -2.83751,-0.26886 -5.99722,-0.902803 -4.01868,-0.80628 -10.24948,-5.129436 -11.89347,-8.252116 -0.32827,-0.62353 -0.61933,-2.33505 -0.71991,-4.233335 -0.15723,-2.967411 -0.24358,-3.265491 -1.25527,-4.333148 -0.59753,-0.63059 -1.21403,-1.146528 -1.37,-1.146528 -0.52053,0 -0.31597,11.716121 0.26252,15.035041 0.83486,4.789819 2.74253,11.232669 4.21797,14.245519 3.11005,6.35075 4.20465,8.10694 9.64205,15.46991 5.1003,6.9065 14.19876,13.69511 23.48953,17.52619 1.95566,0.80642 3.55252,1.61001 3.54859,1.78576 -0.0128,0.57205 -0.88535,9.45062 -1.07912,10.98068 l -0.18856,1.48892 4.69436,0.10974 c 2.5819,0.0603 9.11952,0.14439 14.52804,0.18676 l 9.83368,0.077 z m -21.19943,-21.56881 c -0.97014,-0.23669 -2.08139,-0.63098 -2.46945,-0.87622 -0.66161,-0.4181 -0.65062,-0.4328 0.17639,-0.23595 3.15142,0.75012 6.82326,1.00394 8.90916,0.61587 1.21184,-0.22546 2.99709,-0.49501 3.96723,-0.59901 1.50429,-0.16126 1.63409,-0.13067 0.88194,0.20786 -3.03964,1.36809 -7.94038,1.74742 -11.46527,0.88745 z m 1.94027,-5.03729 c -2.53329,-0.13768 -9.05567,-0.77871 -10.40694,-1.02281 -2.63722,-0.47641 -9.1651,-2.5701 -8.88539,-2.84982 0.0734,-0.0734 1.46762,0.24765 3.0983,0.71341 8.32334,2.37734 12.28338,2.84197 22.20927,2.6058 4.16169,-0.099 19.30729,-2.78569 19.69534,-2.9218 0.53925,-0.18915 -11.99902,2.85288 -12.94569,3.15467 -0.57772,0.18417 -8.31646,0.62662 -10.00877,0.49126 -0.44871,-0.0359 -1.68896,-0.11271 -2.75612,-0.17071 z m -1.5875,-14.39493 c -0.77611,-0.47792 -2.23647,-1.11419 -3.24523,-1.41394 -2.12494,-0.6314 -2.52952,-1.05231 -1.52715,-1.58876 0.4749,-0.25416 0.71544,-0.2613 0.71544,-0.0212 0,0.19893 0.99219,0.81553 2.20486,1.37023 1.21267,0.55471 2.50728,1.35004 2.8769,1.76741 0.85829,0.96916 0.70632,0.9523 -1.02482,-0.11372 z m 11.28889,-1.37189 c 0.97014,-0.22076 1.98292,-0.54254 2.25063,-0.71507 0.34139,-0.22001 0.43892,-0.17024 0.32662,0.16666 -0.19323,0.57969 -1.43203,0.96022 -3.10642,0.95422 -1.10695,-0.004 -1.05219,-0.046 0.52917,-0.40581 z m 2.7348,-2.51805 c 0.004,-0.77611 0.0762,-1.05207 0.16054,-0.61324 0.0844,0.43882 0.0812,1.07382 -0.007,1.41111 -0.0883,0.33728 -0.15734,-0.0218 -0.15342,-0.79787 z m -9.96405,-7.58472 c -0.14409,-0.94378 0.05,-2.28476 0.38043,-2.62819 0.37901,-0.39395 0.36546,0.54353 -0.0303,2.09902 -0.14812,0.58209 -0.30566,0.82021 -0.35009,0.52917 z m -11.60629,-7.737313 c -0.20525,-0.957036 -0.5374,-3.457346 -0.73811,-5.556246 -0.20071,-2.09889 -0.59967,-4.689295 -0.88659,-5.756448 -0.28691,-1.067152 -0.51101,-2.337152 -0.498,-2.822222 0.0275,-1.026029 0.044,-0.987647 1.02334,2.391036 0.40932,1.412085 0.89494,2.474274 1.07915,2.360434 0.1842,-0.11385 0.35817,-1.983568 0.38659,-4.154929 l 0.0517,-3.947929 0.42814,5.468055 c 0.38966,4.976723 1.05745,10.014843 1.40114,10.570953 0.21372,0.34581 -1.15328,3.187386 -1.53336,3.187386 -0.18744,0 -0.50873,-0.78303 -0.71397,-1.74009 z m 26.71424,-33.008525 c -0.0323,-0.873125 -0.072,-1.849748 -0.0882,-2.170275 -0.0397,-0.787209 2.03731,-1.805037 4.20393,-2.060099 0.97014,-0.114204 3.46549,-0.457559 5.54523,-0.763001 4.74658,-0.697118 12.86329,-0.517547 14.7395,0.326086 1.28586,0.578189 2.97078,2.209211 4.00154,3.873539 0.69731,1.125915 0.63485,1.141215 -1.70849,0.418482 -4.19617,-1.29419 -12.09114,-0.836961 -21.16666,1.225843 -1.74625,0.39691 -3.69094,0.725089 -4.32153,0.72929 -1.11619,0.0074 -1.14809,-0.03439 -1.20533,-1.579865 z m 23.21478,33.890515 c 1.9978,-0.81281 3.16751,-1.935136 1.58569,-1.521486 -0.41403,0.10827 -0.75278,0.13557 -0.75278,0.0607 0,-0.0749 0.64058,-0.97286 1.42352,-1.99544 0.78294,-1.02258 2.0586,-3.18391 2.83481,-4.80296 1.51288,-3.155664 3.3304,-8.105976 3.07127,-8.365108 -0.0867,-0.08674 -0.93795,0.07898 -1.89158,0.368268 -0.95362,0.289288 -2.44823,0.532712 -3.32136,0.540946 -2.29646,0.02166 -3.52777,1.177138 -3.52777,3.310537 0,0.873301 -0.14782,1.952477 -0.32848,2.398177 -0.18067,0.44569 -0.6509,1.92159 -1.04496,3.27979 -0.93438,3.22044 -2.71377,6.141566 -4.1748,6.853536 -0.62619,0.30514 -1.14212,0.67961 -1.14653,0.83215 -0.0161,0.55559 5.26017,-0.14017 7.27297,-0.95906 z m -63.34031,-1.894556 c 2.39382,-1.014884 2.98378,-3.476691 2.96628,-5.91842 0,-1.20218 -2.7e-4,-1.20236 -0.5917,-0.41828 -1.0746,2.66796 -0.87625,5.048612 -5.2949,5.98466 -1.29075,0.2666 -2.0509,0.60208 -2.0509,0.90513 3.22129,-0.299148 3.69536,-0.163315 4.97122,-0.55309 z m 58.69308,-2.32582 c 0.0171,-0.66876 -0.0992,-1.13539 -0.25843,-1.03697 -0.34376,1.940012 -2.25633,3.631656 -4.62414,2.993049 -2.19845,-0.62325 -2.80468,-0.52889 -3.36057,-0.950498 -0.99005,-0.750896 4.73364,3.261725 7.66453,0.757779 0.30111,-0.30111 0.56148,-1.09464 0.57859,-1.76339 z m -0.36354,1.23488 c -180.16567,-82.685725 -90.08284,-41.342863 0,0 z m -7.73827,-6.23514 c 0,-1.38515 -1.05862,-1.607044 -1.38889,-0.29113 -0.15727,0.62661 -0.0811,1.0547 0.22191,1.24664 0.7515,0.47607 1.16698,0.13588 1.16698,-0.95551 z m -73.33754,-11.352519 c -0.52626,-1.768489 -1.27495,-5.549812 -1.27495,-6.439267 0,-1.787623 -0.56486,-1.441841 -1.32454,0.810832 -0.92702,2.748883 -1.20717,5.050645 -0.66851,5.492637 0.39645,0.32531 1.52696,0.608933 2.81057,0.705118 0.45479,0.03408 0.58774,-0.1314 0.45743,-0.56932 z m -4.16585,-6.131687 c 0.26377,-1.039163 0.25023,-1.36713 -0.0523,-1.267904 -0.6918,0.226864 -1.99565,2.427418 -1.99565,3.368117 v 0.891269 l 0.84609,-0.794865 c 0.46536,-0.437173 1.00621,-1.425653 1.2019,-2.196617 z"
         id="path247"
         sodipodi:nodetypes="csscssscsscssssssssssssssssscsssssssscsssccscssssssssssssssssssssssssssscsssssssssssscsssssssssssssssscssssssssssssssssssssssscsssssssssssssssssssccscsssssssssssssssssssssssssssssscccccsssssssssssscsssssscssssssssssssssssssssssssccccccsccscssccsssssssssscsscscc" /><path
         id="rect3328"
         style="fill:url(#linearGradient4831);fill-opacity:1;stroke:#000000;stroke-width:3.185;stroke-linecap:round;stroke-linejoin:bevel;stroke-dasharray:none"
         d="m -415.59918,159.6492 h 218.80376 l -20.44895,84.65865 h -179.1328 z"
         sodipodi:nodetypes="ccccc" /><path
         style="fill:#000000;stroke-width:0.0075447"
         d="m -307.87444,185.65352 c -1.02579,-0.14379 -1.62728,-1.09115 -2.20133,-1.85574 -1.15343,-1.7187 -1.80613,-3.87859 -1.42129,-5.94464 0.29054,-1.57026 1.59412,-2.955 3.21884,-3.11569 0.99327,-0.15905 1.87021,0.45309 2.81573,0.61688 1.02838,-0.22268 2.01108,-0.83744 3.10132,-0.64457 0.96503,0.10644 1.91743,0.58501 2.4649,1.40401 -0.88191,0.52864 -1.57059,1.45173 -1.59105,2.51164 -0.11738,1.23877 0.58802,2.45914 1.6736,3.04029 0.63761,0.20043 -0.11434,0.96303 -0.21702,1.39293 -0.4725,0.8338 -1.01899,1.66523 -1.78785,2.25564 -0.68584,0.5203 -1.60449,0.31769 -2.32504,-0.0157 -0.89709,-0.38318 -1.90197,-0.20652 -2.75881,0.19103 -0.31435,0.0951 -0.63972,0.18811 -0.972,0.1639 z m 2.37898,-10.98342 c -0.16437,-0.40077 0.0256,-1.02197 0.20793,-1.44692 0.4758,-1.07956 1.56241,-1.86034 2.74015,-1.95611 0.14796,1.42432 -0.86204,2.82451 -2.1784,3.30492 -0.24897,0.0755 -0.50972,0.10983 -0.76968,0.0981 z"
         id="path5737" /><g
         id="g4795"
         transform="matrix(0.19998321,0,0,0.19998321,-127.38611,203.0803)"
         style="fill:#000000"><path
           style="fill:#000000;fill-opacity:1;stroke-width:0.264583"
           d="m -957.59798,43.762628 c 0.25743,-0.06708 0.61462,-0.06267 0.79375,0.0098 0.17913,0.07248 -0.0315,0.127363 -0.46806,0.12197 -0.43656,-0.0054 -0.58312,-0.06469 -0.32569,-0.131773 z m 2.64583,0 c 0.25743,-0.06708 0.61462,-0.06267 0.79375,0.0098 0.17913,0.07248 -0.0315,0.127363 -0.46805,0.12197 -0.43657,-0.0054 -0.58313,-0.06469 -0.3257,-0.131773 z m 87.98546,0.0026 c 0.191,-0.07643 0.4192,-0.06703 0.50712,0.02088 0.0879,0.08792 -0.0684,0.150452 -0.34726,0.138964 -0.30823,-0.0127 -0.37092,-0.07539 -0.15986,-0.159851 z m 65.70805,-2.994292 c 0,-0.363802 0.0601,-0.51263 0.13346,-0.330729 0.0734,0.181901 0.0734,0.479557 0,0.661458 -0.0734,0.181901 -0.13346,0.03307 -0.13346,-0.330729 z m -32.82922,-0.683506 c 0.0127,-0.308227 0.0754,-0.37092 0.15986,-0.159853 0.0764,0.190994 0.067,0.4192 -0.0209,0.507118 -0.0879,0.08792 -0.15045,-0.06835 -0.13896,-0.347265 z m -50.99651,-5.931077 c 0,-1.091406 0.0467,-1.537891 0.10378,-0.992188 0.0571,0.545703 0.0571,1.438672 0,1.984375 -0.0571,0.545703 -0.10378,0.09922 -0.10378,-0.992187 z m 83.54027,-0.683506 c 0.0127,-0.308227 0.0754,-0.37092 0.15985,-0.159854 0.0764,0.190995 0.067,0.419201 -0.0209,0.507119 -0.0879,0.08792 -0.15045,-0.06835 -0.13896,-0.347265 z M -866.8217,15.63552 c 0,-1.382448 0.0446,-1.947995 0.0991,-1.256771 0.0545,0.691224 0.0545,1.822318 0,2.513542 -0.0545,0.691224 -0.0991,0.125677 -0.0991,-1.256771 z m -43.94415,-0.79375 c 0,-0.654844 0.0516,-0.922734 0.11466,-0.595312 0.0631,0.327421 0.0631,0.863203 0,1.190625 -0.0631,0.327421 -0.11466,0.05953 -0.11466,-0.595313 z m -53.76159,-1.741839 c 0.0127,-0.308227 0.0754,-0.37092 0.15985,-0.159854 0.0764,0.190995 0.067,0.419201 -0.0209,0.507119 -0.0879,0.08792 -0.15045,-0.06835 -0.13896,-0.347265 z m 53.76159,-1.433161 c 0,-0.654844 0.0516,-0.922734 0.11466,-0.595312 0.0631,0.327422 0.0631,0.863203 0,1.190625 -0.0631,0.327422 -0.11466,0.05953 -0.11466,-0.595313 z m 43.93346,-2.3812497 c 0,-0.945885 0.048,-1.332838 0.10671,-0.859896 0.0587,0.472943 0.0587,1.246849 0,1.7197917 -0.0587,0.472943 -0.10671,0.08599 -0.10671,-0.8598957 z m -17.98097,-1.852083 c 0,-1.382448 0.0446,-1.947995 0.0991,-1.256771 0.0545,0.691224 0.0545,1.822318 0,2.513542 -0.0545,0.691224 -0.0991,0.125677 -0.0991,-1.256771 z m 25.59009,1.697744 c 0.0127,-0.308226 0.0754,-0.37092 0.15985,-0.159853 0.0764,0.190994 0.067,0.419197 -0.0209,0.507118 -0.0879,0.08792 -0.15045,-0.06835 -0.13896,-0.347265 z m -62.70625,-1.322917 c 0.0127,-0.308226 0.0754,-0.370919 0.15985,-0.159853 0.0764,0.190995 0.067,0.419198 -0.0209,0.507119 -0.0879,0.08792 -0.15045,-0.06835 -0.13896,-0.347266 z m 81.49166,-0.264583 c 0.0127,-0.308226 0.0754,-0.370919 0.15986,-0.159853 0.0764,0.190994 0.067,0.419197 -0.0209,0.507119 -0.0879,0.08792 -0.15045,-0.06835 -0.13896,-0.347266 z m -52.12291,-3.704167 c 0.0127,-0.308226 0.0754,-0.370919 0.15985,-0.159853 0.0764,0.190995 0.067,0.419198 -0.0209,0.507119 -0.0879,0.08792 -0.15045,-0.06835 -0.13896,-0.347266 z m 58.54594,-5.534202 c -7.9e-4,-1.309687 0.0439,-1.878827 0.0994,-1.264753 0.0555,0.614071 0.0562,1.685634 0.002,2.38125001 -0.0548,0.695613 -0.1002,0.193191 -0.10101,-1.11649701 z m 32.75619,-5.4239579 c 0,-0.3638021 0.0601,-0.5126302 0.13346,-0.3307292 0.0734,0.1819011 0.0734,0.4795573 0,0.6614584 -0.0734,0.181901 -0.13346,0.033073 -0.13346,-0.3307292 z m -132.33344,-5.1269334 c 0,-0.05494 0.20836,-0.2633 0.46302,-0.463021 0.41965,-0.329107 0.42901,-0.319749 0.0999,0.0999 -0.34565,0.44073 -0.56292,0.580888 -0.56292,0.363125 z m 132.04798,-1.37736 c 0.0127,-0.308226 0.0754,-0.370919 0.15985,-0.159853 0.0764,0.190995 0.067,0.419198 -0.0209,0.507119 -0.0879,0.08792 -0.15045,-0.06835 -0.13896,-0.347266 z m -0.26459,-6.35 c 0.0127,-0.308226 0.0754,-0.370919 0.15985,-0.159853 0.0764,0.190995 0.067,0.419198 -0.0209,0.507119 -0.0879,0.08792 -0.15046,-0.06835 -0.13897,-0.347266 z m -149.2955,-0.290983 c 0.191,-0.07643 0.4192,-0.06703 0.50712,0.02088 0.0879,0.08792 -0.0684,0.150453 -0.34727,0.138965 -0.30822,-0.0127 -0.37091,-0.07539 -0.15985,-0.159851 z m 73.80222,-0.275243 c 0.47294,-0.05869 1.24685,-0.05869 1.71979,0 0.47294,0.05869 0.086,0.106714 -0.8599,0.106714 -0.94588,0 -1.33284,-0.04802 -0.85989,-0.106714 z m -36.85445,-18.990892 c 6e-5,-6.111875 0.0348,-8.574407 0.0771,-5.472293 0.0423,3.102113 0.0423,8.102738 -1.2e-4,11.112499 -0.0424,3.009761 -0.0771,0.471669 -0.077,-5.640206 z m 37.04166,0 c 7e-5,-6.111875 0.0348,-8.574407 0.0771,-5.472293 0.0424,3.102113 0.0423,8.102738 -1.2e-4,11.112499 -0.0424,3.009761 -0.0771,0.471669 -0.077,-5.640206 z m 74.88831,8.863541 c 0.26339,-0.291041 0.53842,-0.529166 0.61118,-0.529166 0.0728,0 -0.0832,0.238125 -0.3466,0.529166 -0.26339,0.291042 -0.53842,0.529167 -0.61118,0.529167 -0.0728,0 0.0832,-0.238125 0.3466,-0.529167 z m -102.95241,-4.365625 c 5.3e-4,-1.89177 0.0426,-2.630959 0.0937,-1.642642 0.051,0.988318 0.0507,2.53613 -7.9e-4,3.439583 -0.0516,0.903454 -0.0933,0.09483 -0.0929,-1.796941 z m -45.87572,-11.609269 c 0,-0.05494 0.20836,-0.263302 0.46302,-0.463021 0.41965,-0.329107 0.429,-0.319749 0.0999,0.09989 -0.34565,0.440729 -0.56292,0.580887 -0.56292,0.363126 z m 6.58083,-0.363126 c -0.3291,-0.419644 -0.31975,-0.429002 0.0999,-0.09989 0.44073,0.345644 0.58089,0.562916 0.36312,0.562916 -0.0549,0 -0.2633,-0.20836 -0.46302,-0.463021 z"
           id="path4805" /><path
           style="fill:#000000;fill-opacity:1;stroke-width:0.264583"
           d="m -956.27507,43.762628 c 0.25744,-0.06708 0.61462,-0.06267 0.79375,0.0098 0.17914,0.07248 -0.0315,0.127363 -0.46805,0.12197 -0.43656,-0.0054 -0.58313,-0.06469 -0.3257,-0.131773 z m 88.51463,0.0026 c 0.191,-0.07643 0.4192,-0.06703 0.50712,0.02088 0.0879,0.08792 -0.0684,0.150452 -0.34726,0.138964 -0.30823,-0.0127 -0.37092,-0.07539 -0.15986,-0.159851 z m 41.53959,0 c 0.19099,-0.07643 0.4192,-0.06703 0.50712,0.02088 0.0879,0.08792 -0.0684,0.150452 -0.34727,0.138964 -0.30823,-0.0127 -0.37092,-0.07539 -0.15985,-0.159851 z m 24.97202,-1.803667 c 0.005,-0.436563 0.0647,-0.583126 0.13177,-0.325694 0.0671,0.257431 0.0627,0.614619 -0.01,0.79375 -0.0725,0.179131 -0.12737,-0.03149 -0.12197,-0.468056 z m -83.83554,-4.101042 c 0,-1.091406 0.0467,-1.53789 0.10378,-0.992187 0.0571,0.545703 0.0571,1.438672 0,1.984375 -0.0571,0.545703 -0.10378,0.09922 -0.10378,-0.992188 z m 51.0513,0.661459 c 0.002,-0.727605 0.0534,-0.993857 0.11419,-0.591675 0.0608,0.402183 0.0592,0.997495 -0.004,1.322917 -0.0628,0.325421 -0.11256,-0.0037 -0.11058,-0.731242 z m -96.68234,-0.06615 c -0.32911,-0.419645 -0.31975,-0.429004 0.0999,-0.0999 0.44073,0.345643 0.58089,0.562917 0.36313,0.562917 -0.0549,0 -0.2633,-0.20836 -0.46302,-0.463021 z m 129.19219,-4.034896 c 0,-0.363802 0.0601,-0.51263 0.13345,-0.330729 0.0734,0.181901 0.0734,0.479557 0,0.661458 -0.0734,0.181901 -0.13345,0.03307 -0.13345,-0.330729 z m -144.2188,-2.006423 c 0.0127,-0.308226 0.0754,-0.370919 0.15985,-0.159853 0.0764,0.190995 0.067,0.419201 -0.0209,0.507119 -0.0879,0.08792 -0.15045,-0.06835 -0.13896,-0.347266 z m 0.26458,-4.233333 c 0.0127,-0.308226 0.0754,-0.370919 0.15985,-0.159853 0.0764,0.190995 0.067,0.4192 -0.0209,0.507119 -0.0879,0.08792 -0.15045,-0.06835 -0.13896,-0.347266 z m 143.64786,0.158732 c 0,-0.162015 -2.62059,-0.288536 -6.94531,-0.335315 l -6.94531,-0.07512 7.0776,-0.06156 c 6.14218,-0.05342 7.07761,-0.0091 7.07761,0.335317 0,0.218281 -0.0595,0.396875 -0.1323,0.396875 -0.0728,0 -0.13229,-0.117086 -0.13229,-0.260191 z m -152.73073,-0.984867 c 0.32742,-0.06307 0.8632,-0.06307 1.19063,0 0.32742,0.06306 0.0595,0.114663 -0.59532,0.114663 -0.65484,0 -0.92273,-0.0516 -0.59531,-0.114663 z m 87.72252,-8.015358 c 0,-0.800365 0.0496,-1.127787 0.11022,-0.727605 0.0606,0.400183 0.0606,1.055026 0,1.455209 -0.0606,0.400182 -0.11022,0.07276 -0.11022,-0.727604 z m -43.95835,-2.910417 c 0,-0.363802 0.0601,-0.51263 0.13346,-0.330729 0.0734,0.181901 0.0734,0.479557 0,0.661458 -0.0734,0.181901 -0.13346,0.03307 -0.13346,-0.330729 z m -53.7313,-2.535589 c 0.0127,-0.308227 0.0754,-0.37092 0.15985,-0.159854 0.0764,0.190995 0.067,0.419201 -0.0209,0.507119 -0.0879,0.08792 -0.15045,-0.06835 -0.13896,-0.347265 z m 79.7094,-2.094619 c 10e-4,-1.164167 0.0475,-1.607505 0.10337,-0.985195 0.0559,0.622311 0.0551,1.574811 -0.002,2.116667 -0.0568,0.541856 -0.10258,0.03269 -0.10162,-1.131472 z m -25.96829,-1.8520827 c 0.005,-0.436563 0.0647,-0.583126 0.13177,-0.325695 0.0671,0.257432 0.0627,0.6146197 -0.01,0.7937497 -0.0725,0.179131 -0.12737,-0.03149 -0.12197,-0.4680547 z m -53.74111,-1.609548 c 0.0127,-0.308226 0.0754,-0.370919 0.15985,-0.159853 0.0764,0.190994 0.067,0.419197 -0.0209,0.507118 -0.0879,0.08792 -0.15045,-0.06835 -0.13896,-0.347265 z m 23.28333,0 c 0.0127,-0.308226 0.0754,-0.370919 0.15985,-0.159853 0.0764,0.190994 0.067,0.419197 -0.0209,0.507118 -0.0879,0.08792 -0.15045,-0.06835 -0.13897,-0.347265 z m 100.80625,0 c 0.0127,-0.308226 0.0754,-0.370919 0.15986,-0.159853 0.0764,0.190994 0.067,0.419197 -0.0209,0.507118 -0.0879,0.08792 -0.15045,-0.06835 -0.13896,-0.347265 z m -26.40716,-1.697694 c 0,-0.654844 0.0516,-0.922734 0.11467,-0.595312 0.0631,0.327421 0.0631,0.863203 0,1.190624 -0.0631,0.327422 -0.11467,0.05953 -0.11467,-0.595312 z m 32.83019,-3.836458 c -7.9e-4,-1.309688 0.0439,-1.87882799 0.0994,-1.264753 0.0555,0.614071 0.0562,1.685633 0.002,2.381249 -0.0547,0.695614 -0.10008,0.193191 -0.10089,-1.116496 z m 22.08095,-7.4739738 c 2.08248,-0.044757 5.41623,-0.044648 7.40833,2.434e-4 1.99211,0.044889 0.28826,0.08151 -3.78632,0.081375 -4.07458,-1.323e-4 -5.70449,-0.036862 -3.62201,-0.081618 z m 10.65436,-1.5439072 c 0.0127,-0.3082263 0.0754,-0.3709194 0.15985,-0.1598533 0.0764,0.1909948 0.067,0.4191979 -0.0209,0.5071189 -0.0879,0.087918 -0.15045,-0.068352 -0.13896,-0.3472656 z m -0.2437,-6.4602433 c 0,-0.363802 0.0601,-0.512631 0.13345,-0.33073 0.0734,0.181902 0.0734,0.479558 0,0.661459 -0.0734,0.181901 -0.13345,0.03307 -0.13345,-0.330729 z m -83.04166,-6.614583 c 0,-0.800365 0.0496,-1.127787 0.11023,-0.727605 0.0606,0.400183 0.0606,1.055026 0,1.455209 -0.0606,0.400182 -0.11023,0.07276 -0.11023,-0.727604 z m 82.77708,0.264583 c 0,-0.363802 0.06,-0.51263 0.13345,-0.330729 0.0734,0.181901 0.0734,0.479557 0,0.661458 -0.0734,0.181901 -0.13345,0.03307 -0.13345,-0.330729 z m -150.11014,-1.239073 c 0.191,-0.07643 0.4192,-0.06703 0.50712,0.02088 0.0879,0.08792 -0.0684,0.150453 -0.34727,0.138965 -0.30822,-0.0127 -0.37091,-0.07539 -0.15985,-0.159851 z m 71.69029,-0.275595 c 0.47555,-0.05889 1.18992,-0.05767 1.5875,0.0027 0.39757,0.06037 0.008,0.10855 -0.86464,0.107066 -0.87312,-0.0016 -1.19841,-0.05088 -0.72286,-0.109765 z m -16.26078,-9.46554 c 0.002,-0.873125 0.0509,-1.198415 0.10977,-0.722866 0.0589,0.475549 0.0577,1.189924 -0.003,1.5875 -0.0604,0.397576 -0.10855,0.0085 -0.10707,-0.864634 z m 97.33627,-8.73125 c 0.005,-0.436563 0.0647,-0.583125 0.13177,-0.325694 0.0671,0.257431 0.0627,0.614619 -0.01,0.79375 -0.0725,0.179132 -0.12735,-0.03149 -0.12195,-0.468056 z m -153.9598,-0.926042 c 0,-0.800364 0.0496,-1.127786 0.11022,-0.727604 0.0606,0.400182 0.0606,1.055026 0,1.455208 -0.0606,0.400183 -0.11022,0.07276 -0.11022,-0.727604 z m 11.1125,0 c 0,-0.800364 0.0496,-1.127786 0.11022,-0.727604 0.0606,0.400182 0.0606,1.055026 0,1.455208 -0.0606,0.400183 -0.11022,0.07276 -0.11022,-0.727604 z m 38.48374,1.12702 c 0.9095,-0.05166 2.39778,-0.05166 3.30729,0 0.9095,0.05167 0.16536,0.09394 -1.65365,0.09394 -1.81901,0 -2.56315,-0.04227 -1.65364,-0.09394 z m 104.36356,-2.053061 c 0.005,-0.436563 0.0647,-0.583125 0.13177,-0.325694 0.0671,0.257431 0.0627,0.614618 -0.01,0.79375 -0.0725,0.179131 -0.12735,-0.03149 -0.12195,-0.468056 z m -158.25153,-0.551216 c 0.0127,-0.308224 0.0754,-0.370919 0.15985,-0.159852 0.0764,0.190996 0.067,0.419199 -0.0209,0.507118 -0.0879,0.08792 -0.15045,-0.06835 -0.13896,-0.347266 z m 124.66401,-0.571493 c 1.12778,-0.0496 2.97325,-0.0496 4.10104,0 1.12779,0.0496 0.20505,0.09017 -2.05052,0.09017 -2.25557,0 -3.17831,-0.04058 -2.05052,-0.09017 z m -115.08872,-6.60127 c 0.25743,-0.06708 0.61462,-0.06267 0.79375,0.0098 0.17913,0.07247 -0.0315,0.127362 -0.46805,0.121969 -0.43657,-0.0054 -0.58313,-0.06469 -0.3257,-0.131773 z m 138.37709,0 c 0.25743,-0.06708 0.61462,-0.06267 0.79375,0.0098 0.17913,0.07247 -0.0315,0.127362 -0.46806,0.121969 -0.43656,-0.0054 -0.58312,-0.06469 -0.32569,-0.131773 z"
           id="path4803" /><path
           style="fill:#000000;fill-opacity:1;stroke-width:0.264583"
           d="m -868.55419,43.765242 c 0.191,-0.07643 0.4192,-0.06703 0.50712,0.02088 0.0879,0.08792 -0.0684,0.150453 -0.34726,0.138964 -0.30823,-0.0127 -0.37092,-0.07539 -0.15986,-0.15985 z m 43.12709,0 c 0.19099,-0.07643 0.4192,-0.06703 0.50712,0.02088 0.0879,0.08792 -0.0684,0.150453 -0.34727,0.138964 -0.30823,-0.0127 -0.37092,-0.07539 -0.15985,-0.15985 z m 24.16846,-0.61301 c 0,-0.363802 0.0601,-0.51263 0.13346,-0.330729 0.0734,0.181901 0.0734,0.479557 0,0.661458 -0.0734,0.181901 -0.13346,0.03307 -0.13346,-0.330729 z m -83.82787,-1.719792 c 10e-4,-1.018646 0.049,-1.402942 0.10627,-0.853995 0.0573,0.548949 0.0563,1.382387 -0.002,1.852083 -0.0584,0.469699 -0.10531,0.02056 -0.10414,-0.998088 z m 51.06847,-6.085416 c 0.001,-1.164167 0.0475,-1.607505 0.10337,-0.985195 0.0559,0.622311 0.0551,1.574811 -0.002,2.116667 -0.0569,0.541856 -0.10259,0.03269 -0.10163,-1.131472 z m -14.11362,0.529166 c 0.34177,-0.363802 0.68094,-0.661458 0.7537,-0.661458 0.0728,0 -0.14734,0.297656 -0.48912,0.661458 -0.34177,0.363802 -0.68094,0.661459 -0.7537,0.661459 -0.0728,0 0.14734,-0.297657 0.48912,-0.661459 z m 46.58756,-0.551214 c 0.0127,-0.308226 0.0754,-0.370919 0.15985,-0.159853 0.0764,0.190994 0.067,0.4192 -0.0209,0.507119 -0.0879,0.08792 -0.15045,-0.06835 -0.13896,-0.347266 z m -0.26459,-6.35 c 0.0127,-0.308226 0.0754,-0.370919 0.15985,-0.159853 0.0764,0.190995 0.067,0.4192 -0.0209,0.507119 -0.0879,0.08792 -0.15046,-0.06835 -0.13897,-0.347266 z m -65.0875,-7.9375 c 0.0127,-0.308226 0.0754,-0.370919 0.15985,-0.159853 0.0764,0.190995 0.067,0.419201 -0.0209,0.507119 -0.0879,0.08792 -0.15046,-0.06835 -0.13897,-0.347266 z m -17.9236,-5.40191 c 0,-1.091406 0.0467,-1.537891 0.10379,-0.992187 0.0571,0.545703 0.0571,1.438671 0,1.984374 -0.0571,0.545704 -0.10379,0.09922 -0.10379,-0.992187 z m -56.42432,-6.5043387 c 0.0127,-0.308226 0.0754,-0.37092 0.15985,-0.159853 0.0764,0.190994 0.067,0.419197 -0.0209,0.507118 -0.0879,0.08792 -0.15045,-0.06835 -0.13897,-0.347265 z m 107.22928,-1.830036 c -7.9e-4,-1.309687 0.0439,-1.878827 0.0994,-1.264753 0.0555,0.614071 0.0562,1.685634 0.002,2.38125 -0.0547,0.695613 -0.10008,0.193191 -0.10089,-1.116497 z m -58.54594,-2.138714 c 0.0127,-0.308226 0.0754,-0.370919 0.15985,-0.159853 0.0764,0.190994 0.067,0.419198 -0.0209,0.507119 -0.0879,0.08792 -0.15045,-0.06835 -0.13896,-0.347266 z m 25.68547,-0.110244 c 0,-0.363802 0.06,-0.51263 0.13345,-0.330729 0.0734,0.181901 0.0734,0.479557 0,0.661458 -0.0734,0.181901 -0.13345,0.03307 -0.13345,-0.330729 z m 65.61666,-10.3187496 c 0,-0.3638021 0.0601,-0.5126302 0.13346,-0.3307292 0.0734,0.1819011 0.0734,0.4795573 0,0.6614583 -0.0734,0.1819011 -0.13346,0.033073 -0.13346,-0.3307291 z m -0.28546,-6.5043387 c 0.0127,-0.308227 0.0754,-0.37092 0.15985,-0.159854 0.0764,0.190995 0.067,0.419198 -0.0209,0.507119 -0.0879,0.08792 -0.15045,-0.06835 -0.13896,-0.347265 z m -173.0584,-0.739307 c 0,-0.05494 0.20836,-0.2633 0.46302,-0.463021 0.41965,-0.329107 0.42901,-0.319749 0.0999,0.0999 -0.34564,0.44073 -0.56292,0.580887 -0.56292,0.363125 z m 74.04959,-1.156875 c -0.32911,-0.419645 -0.31975,-0.429003 0.0999,-0.0999 0.25467,0.199721 0.46302,0.40808 0.46302,0.463021 0,0.217763 -0.21727,0.07761 -0.56291,-0.363125 z m 16.00413,-1.918229 c 0,-1.382448 0.0446,-1.947995 0.0991,-1.256771 0.0545,0.691224 0.0545,1.822318 0,2.513542 -0.0545,0.691224 -0.0991,0.125677 -0.0991,-1.256771 z m 82.74009,-2.535589 c 0.0127,-0.308227 0.0754,-0.37092 0.15985,-0.159854 0.0764,0.190995 0.067,0.419198 -0.0209,0.507119 -0.0879,0.08792 -0.15046,-0.06835 -0.13897,-0.347265 z m -150.883,-2.143067 c 0.191,-0.07643 0.4192,-0.06703 0.50712,0.02088 0.0879,0.08792 -0.0684,0.150453 -0.34727,0.138965 -0.30822,-0.0127 -0.37091,-0.07539 -0.15985,-0.159851 z m 69.57362,-0.275595 c 0.47555,-0.05889 1.18993,-0.05767 1.5875,0.0027 0.39758,0.06037 0.008,0.10855 -0.86463,0.107066 -0.87313,-0.0016 -1.19842,-0.05088 -0.72287,-0.109765 z m -9.87169,-18.99054 c 7e-5,-6.111875 0.0348,-8.574407 0.0771,-5.472293 0.0424,3.102113 0.0423,8.102738 -1.2e-4,11.112499 -0.0424,3.009761 -0.0771,0.471669 -0.077,-5.640206 z m 3.17072,3.439583 c 1.2e-4,-4.220104 0.0367,-5.909461 0.0812,-3.754127 0.0445,2.155335 0.0444,5.608147 -2.3e-4,7.672917 -0.0446,2.064769 -0.0811,0.301314 -0.0809,-3.91879 z m 55.0273,2.513542 c 0,-2.837657 0.0389,-3.998516 0.0865,-2.579688 0.0476,1.418828 0.0476,3.740547 0,5.159375 -0.0476,1.418828 -0.0865,0.257969 -0.0865,-2.579687 z m 12.18115,-5.953125 c 7e-5,-6.111875 0.0348,-8.574407 0.0771,-5.472293 0.0424,3.102113 0.0423,8.102738 -1.2e-4,11.112499 -0.0424,3.009761 -0.0771,0.471669 -0.077,-5.640206 z m -131.65274,8.929687 c -0.32911,-0.419644 -0.31975,-0.429002 0.0999,-0.0999 0.44073,0.345644 0.58088,0.562916 0.36312,0.562916 -0.0549,0 -0.2633,-0.20836 -0.46302,-0.463021 z m 148.20042,-1.488957 c 0,-0.05494 0.20836,-0.263302 0.46302,-0.463021 0.41965,-0.329108 0.429,-0.319749 0.0999,0.0999 -0.34565,0.440729 -0.56292,0.580887 -0.56292,0.363126 z m -92.52488,-7.837605 c 0,-0.800365 0.0496,-1.127787 0.11022,-0.727604 0.0606,0.400182 0.0606,1.055026 0,1.455208 -0.0606,0.400182 -0.11022,0.07276 -0.11022,-0.727604 z m 63.79356,-6.217708 c -2.7e-4,-2.473854 0.0395,-3.521497 0.0884,-2.328095 0.0489,1.193401 0.0492,3.217464 5.3e-4,4.497916 -0.0486,1.280452 -0.0886,0.304033 -0.0889,-2.169821 z m 22.24903,-0.661459 c 0.26339,-0.291041 0.53842,-0.529166 0.61118,-0.529166 0.0728,0 -0.0832,0.238125 -0.3466,0.529166 -0.26339,0.291042 -0.53842,0.529167 -0.61118,0.529167 -0.0728,0 0.0832,-0.238125 0.3466,-0.529167 z"
           id="path4801" /><path
           style="fill:#000000;fill-opacity:1;stroke-width:0.264583"
           d="m -885.15244,43.527059 c 0.0127,-0.308226 0.0754,-0.370919 0.15985,-0.159853 0.0764,0.190995 0.067,0.4192 -0.0209,0.507119 -0.0879,0.08792 -0.15046,-0.06835 -0.13897,-0.347266 z m 14.60098,0.229063 c 0.40218,-0.06082 0.99749,-0.05919 1.32292,0.0036 0.32542,0.0628 -0.004,0.112559 -0.73125,0.110575 -0.7276,-0.0021 -0.99385,-0.05337 -0.59167,-0.114186 z m 46.56303,-0.0029 c 0.5457,-0.05708 1.43867,-0.05708 1.98437,0 0.54571,0.05708 0.0992,0.103785 -0.99218,0.103785 -1.09141,0 -1.53789,-0.0467 -0.99219,-0.103785 z m 22.46521,-7.480176 c 0,-0.363802 0.0601,-0.51263 0.13345,-0.330729 0.0734,0.181901 0.0734,0.479557 0,0.661459 -0.0734,0.181901 -0.13345,0.03307 -0.13345,-0.33073 z M -833.9869,21.456399 c 0,-6.621198 0.0344,-9.329869 0.0763,-6.01927 0.042,3.310598 0.042,8.727942 0,12.038541 -0.042,3.310599 -0.0763,0.601927 -0.0763,-6.019271 z m 32.1991,8.466667 c 0,-0.363803 0.06,-0.512631 0.13345,-0.33073 0.0734,0.181901 0.0734,0.479558 0,0.661459 -0.0734,0.181901 -0.13345,0.03307 -0.13345,-0.330729 z m -143.62854,-4.101042 c 0.002,-0.873125 0.0509,-1.198414 0.10976,-0.722865 0.0589,0.475548 0.0577,1.189923 -0.003,1.5875 -0.0604,0.397576 -0.10855,0.0085 -0.10706,-0.864635 z m 25.68975,0.330729 -0.50403,-0.595312 0.59531,0.504028 c 0.32742,0.277215 0.59531,0.545105 0.59531,0.595313 0,0.211733 -0.21293,0.05542 -0.68659,-0.504029 z m 52.8304,-4.321527 c 0.0127,-0.308226 0.0754,-0.370919 0.15985,-0.159853 0.0764,0.190995 0.067,0.419201 -0.0209,0.507119 -0.0879,0.08792 -0.15046,-0.06835 -0.13897,-0.347266 z m -17.9236,-2.491493 c 0,-1.091407 0.0467,-1.537891 0.10379,-0.992188 0.0571,0.545703 0.0571,1.438672 0,1.984375 -0.0571,0.545703 -0.10379,0.09922 -0.10379,-0.992187 z m -98.19779,-4.894792 c 0.005,-0.436562 0.0647,-0.583126 0.13177,-0.325694 0.0671,0.257432 0.0627,0.614619 -0.01,0.79375 -0.0725,0.179131 -0.12737,-0.03149 -0.12197,-0.468056 z m 41.80416,-0.79375 c 0.005,-0.436562 0.0647,-0.583126 0.13178,-0.325694 0.0671,0.257432 0.0627,0.614619 -0.01,0.79375 -0.0725,0.179131 -0.12736,-0.03149 -0.12197,-0.468056 z m 82.28542,-1.322917 c 0.005,-0.436562 0.0647,-0.583125 0.13178,-0.325694 0.0671,0.257432 0.0627,0.614619 -0.01,0.79375 -0.0725,0.179131 -0.12736,-0.03149 -0.12197,-0.468056 z M -983.01758,9.9470253 c 0.005,-0.436563 0.0647,-0.583126 0.13177,-0.325695 0.0671,0.257432 0.0627,0.6146197 -0.01,0.7937497 -0.0725,0.179131 -0.12737,-0.03149 -0.12197,-0.4680547 z m 41.77347,-0.02204 c 0.0127,-0.308227 0.0754,-0.37092 0.15985,-0.159854 0.0764,0.190995 0.067,0.4191977 -0.0209,0.5071187 -0.0879,0.08792 -0.15045,-0.06835 -0.13897,-0.3472647 z m 100.80625,-0.264584 c 0.0127,-0.308226 0.0754,-0.370919 0.15986,-0.159853 0.0764,0.190995 0.067,0.419198 -0.0209,0.5071187 -0.0879,0.08792 -0.15045,-0.06835 -0.13896,-0.3472657 z m -52.09222,-3.417543 c 0.005,-0.436562 0.0647,-0.583126 0.13177,-0.325694 0.0671,0.257432 0.0627,0.614619 -0.01,0.79375 -0.0725,0.179131 -0.12737,-0.03149 -0.12197,-0.468056 z m 25.66458,-2.38125 c 0.005,-0.436562 0.0647,-0.583126 0.13178,-0.325694 0.0671,0.257432 0.0627,0.614619 -0.01,0.79375 -0.0725,0.179131 -0.12736,-0.03149 -0.12197,-0.468056 z m -94.24325,-4.977582 c 0,-0.04554 0.38696,-0.432488 0.8599,-0.859896 l 0.8599,-0.777105 -0.77711,0.859896 c -0.72437,0.801544 -0.94269,0.98151101 -0.94269,0.777105 z m 46.67382,-2.364605 -0.50402,-0.595313 0.59531,0.504029 c 0.55944,0.473662 0.71576,0.686596 0.50403,0.686596 -0.0502,0 -0.3181,-0.26789 -0.59532,-0.595312 z m 29.88468,-7.4744793 c -7.9e-4,-1.309687 0.0439,-1.878827 0.0994,-1.264753 0.0555,0.614071 0.0562,1.685634 0.002,2.3812498 -0.0547,0.6956134 -0.10008,0.1931909 -0.10088,-1.1164968 z m 83.02703,0.132292 c 0,-0.363802 0.0601,-0.51263 0.13345,-0.330729 0.0734,0.181901 0.0734,0.479557 0,0.661458 -0.0734,0.181901 -0.13345,0.03307 -0.13345,-0.330729 z m -0.26458,-6.35 c 0,-0.363802 0.06,-0.51263 0.13345,-0.330729 0.0734,0.181901 0.0734,0.479557 0,0.661458 -0.0734,0.181901 -0.13345,0.03307 -0.13345,-0.330729 z m -31.96741,-1.5875 c 0,-1.091406 0.0467,-1.53789 0.10379,-0.992187 0.0571,0.545703 0.0571,1.438672 0,1.984375 -0.0571,0.545703 -0.10379,0.09922 -0.10379,-0.992188 z m -121.99572,-1.515657 c 0.5457,-0.05708 1.43867,-0.05708 1.98437,0 0.5457,0.05708 0.0992,0.103785 -0.99219,0.103785 -1.0914,0 -1.53789,-0.0467 -0.99218,-0.103785 z m 38.24883,0.01201 c 0.19099,-0.07643 0.4192,-0.06703 0.50711,0.02088 0.0879,0.08792 -0.0684,0.150452 -0.34726,0.138964 -0.30823,-0.0127 -0.37092,-0.07539 -0.15985,-0.159851 z m 2.62929,0.0055 c 0.1819,-0.0734 0.47956,-0.0734 0.66146,0 0.1819,0.0734 0.0331,0.133453 -0.33073,0.133453 -0.3638,0 -0.51263,-0.06006 -0.33073,-0.133453 z m 76.1294,-19.271649 0.004,-11.1125 1.98437,-0.02003 1.98438,-0.02003 -1.91534,0.0977 -1.91533,0.09771 -0.0735,11.034821 -0.0735,11.034821 0.004,-11.1125 z m 12.15375,5.953125 c 0,-2.837657 0.0389,-3.998516 0.0865,-2.579688 0.0476,1.418828 0.0476,3.740547 0,5.159375 -0.0476,1.418828 -0.0865,0.257969 -0.0865,-2.579687 z m -99.42092,3.505729 c -0.0675,-0.109141 0.43153,-0.163634 1.10886,-0.121096 2.09955,0.131856 2.36173,0.245889 0.65182,0.283502 -0.90092,0.01982 -1.69323,-0.05327 -1.76068,-0.162406 z m 22.92472,-1.586252 c 1.28046,-0.04861 3.30452,-0.04836 4.49792,5.55e-4 1.1934,0.04891 0.14576,0.08868 -2.3281,0.08837 -2.47385,-2.91e-4 -3.45027,-0.04032 -2.16982,-0.08893 z m 88.37098,-8.004894 c 0,-0.800364 0.0496,-1.127786 0.11023,-0.727604 0.0606,0.400182 0.0606,1.055026 0,1.455208 -0.0606,0.400183 -0.11023,0.07276 -0.11023,-0.727604 z m -142.61764,0 c 0,-0.654844 0.0516,-0.922734 0.11466,-0.595312 0.0631,0.327422 0.0631,0.863203 0,1.190625 -0.0631,0.327422 -0.11466,0.05953 -0.11466,-0.595313 z m 4.18216,-1.74184 c 0.0127,-0.308224 0.0754,-0.370919 0.15985,-0.159852 0.0764,0.190996 0.067,0.419199 -0.0209,0.507118 -0.0879,0.08792 -0.15045,-0.06835 -0.13897,-0.347266 z m 49.53335,-0.04211 c 0.98831,-0.05105 2.53613,-0.05067 3.43958,8.46e-4 0.90345,0.05151 0.0948,0.09327 -1.79694,0.09281 -1.89177,-4.49e-4 -2.63096,-0.04261 -1.64264,-0.09365 z m 77.039,-4.76423 0.01,-4.432026 1.85208,-0.01736 1.85209,-0.01736 -1.7796,0.09497 -1.77959,0.09497 -0.0824,4.354417 -0.0824,4.354417 0.01,-4.432026 z m -76.64057,-1.586367 c 1.20746,-0.04914 3.11246,-0.04886 4.23333,6.08e-4 1.12088,0.04947 0.13296,0.08967 -2.19537,0.08934 -2.32833,-3.43e-4 -3.24541,-0.04081 -2.03796,-0.08995 z m 87.49838,-0.861284 c 0.26339,-0.291042 0.53842,-0.529167 0.61118,-0.529167 0.0728,0 -0.0832,0.238125 -0.3466,0.529167 -0.26339,0.291042 -0.53842,0.529167 -0.61118,0.529167 -0.0728,0 0.0832,-0.238125 0.3466,-0.529167 z m -166.09809,-2.043041 c 0.46969,-0.05845 1.30313,-0.05941 1.85208,-0.0021 0.54895,0.05729 0.16465,0.105108 -0.85399,0.106281 -1.01865,0.0012 -1.46779,-0.04569 -0.99809,-0.104137 z m 10.58923,-4.41e-4 c 0.47294,-0.05869 1.24685,-0.05869 1.71979,0 0.47295,0.05869 0.086,0.106713 -0.85989,0.106713 -0.94589,0 -1.33284,-0.04802 -0.8599,-0.106713 z m 10.45468,0.0015 c 0.40218,-0.06082 0.9975,-0.05919 1.32292,0.0036 0.32542,0.0628 -0.004,0.112561 -0.73124,0.110574 -0.72761,-0.002 -0.99386,-0.05337 -0.59168,-0.114185 z m 28.17449,-0.0052 c 0.76398,-0.05345 2.01414,-0.05345 2.77812,0 0.76399,0.05345 0.13891,0.09718 -1.38906,0.09718 -1.52797,0 -2.15305,-0.04373 -1.38906,-0.09718 z m 14.95694,2.57e-4 c 0.69562,-0.05468 1.76718,-0.05402 2.38125,0.0015 0.61407,0.05549 0.0449,0.10023 -1.26475,0.09942 -1.30969,-7.94e-4 -1.81211,-0.04621 -1.1165,-0.10089 z m 11.3691,-0.0028 c 1.70987,-0.04609 4.50784,-0.04609 6.21771,0 1.70987,0.04609 0.31088,0.08379 -3.10886,0.08379 -3.41973,0 -4.81872,-0.03771 -3.10885,-0.08379 z m 14.14931,0.0066 c 0.4697,-0.05845 1.30313,-0.05941 1.85208,-0.0021 0.54895,0.05728 0.16465,0.105099 -0.85399,0.106272 -1.01865,0.0012 -1.46779,-0.04569 -0.99809,-0.104137 z m 12.71064,-7.94e-4 c 0.47555,-0.05889 1.18992,-0.05767 1.5875,0.0027 0.39757,0.06037 0.008,0.10855 -0.86464,0.107065 -0.87312,-0.0015 -1.19841,-0.05088 -0.72286,-0.109765 z"
           id="path4799" /><path
           style="fill:#000000;fill-opacity:1;stroke-width:0.264583"
           d="m -884.81159,22.580878 c 0.0936,-11.750807 0.24563,-26.2312687 0.33785,-32.1788033 l 0.16767,-10.8137027 8.89293,0.137263 c 8.97527,0.138536 12.15875,0.422635 15.63981,1.395722 8.27856,2.31417 13.96803,7.764549 16.97115,16.2579603 1.8491,5.229616 2.42327,8.732025 2.42896,14.8166657 0.005,5.427718 -0.52837,8.866594 -2.08074,13.413242 -1.67768,4.913696 -3.57501,8.142306 -6.63437,11.289432 -3.23809,3.330987 -6.98088,5.295273 -11.69887,6.139778 -2.89026,0.51735 -10.30379,0.884097 -18.13878,0.897323 l -6.05579,0.01021 0.17018,-21.365103 z m 20.72156,4.680601 c 1.0663,-0.401331 2.67226,-2.032627 3.3991,-3.45273 2.51575,-4.915257 2.31849,-18.1785787 -0.34315,-23.07285669 -0.39799,-0.731835 -1.33311,-1.97537101 -2.07804,-2.76341101 -1.53039,-1.618954 -2.36142,-1.773637 -2.94673,-0.548495 -0.63585,1.330928 -0.91941,7.761507 -0.78556,17.8147047 0.13306,9.993542 0.28185,11.491116 1.19452,12.023177 0.5779,0.336899 0.66377,0.336878 1.55986,-2.65e-4 z m 38.05108,16.392728 c -5.38304,-0.219202 -6.93262,-0.468103 -7.4674,-1.199459 -0.26907,-0.367985 -0.33781,-6.257676 -0.33781,-28.94526 0,-15.6657987 0.0776,-29.751947 0.1725,-31.302554 l 0.1725,-2.819283 h 15.79613 15.79613 l 0.16737,3.241146 c 0.0921,1.78263 0.24636,5.354505 0.3429,7.9374993 l 0.17554,4.696354 h -7.18341 -7.18341 v 3.96875001 3.96874999 h 6.61458 6.61459 v 7.6729157 7.672917 h -6.61459 -6.61458 v 4.762499 4.7625 h 6.84267 6.84268 l 0.16317,1.918229 c 0.0897,1.055026 0.24334,4.626901 0.34131,7.9375 l 0.17813,6.019271 -9.89596,-0.04353 c -5.44278,-0.02394 -12.15815,-0.135652 -14.92304,-0.248243 z M -961.9025,43.290061 c -8.99088,-1.490943 -15.7527,-7.723288 -19.09559,-17.600329 -2.39544,-7.077672 -2.54403,-17.9632067 -0.34853,-25.53228969 2.49552,-8.60338761 7.43373,-14.70984931 14.5771,-18.02567631 3.88591,-1.803767 5.41491,-2.074203 11.75244,-2.078656 4.99941,-0.0035 5.82901,0.0564 6.79404,0.490646 1.7615,0.792646 2.17918,2.093547 2.37026,7.382374 0.15015,4.1557075 -0.18846,9.5811213 -0.64938,10.4047293 -0.17527,0.3132 -0.53451,0.178551 -1.92098,-0.720021 -0.93797,-0.607896 -2.18165,-1.322777 -2.76373,-1.588625 -1.29738,-0.5925342 -4.11823,-0.6521421 -5.62944,-0.118956 -2.88818,1.019008 -5.47448,3.80363601 -6.52599,7.026433 -1.09968,3.370448 -1.29052,4.976902 -1.14143,9.6086367 0.27037,8.399838 2.14532,12.541078 6.43917,14.222288 1.21427,0.47543 2.10089,0.615347 3.94727,0.622911 2.72689,0.01116 3.6182,-0.242996 6.44062,-1.83661 l 2.02605,-1.143961 0.0775,2.429328 c 0.0927,2.905836 -0.62512,12.306775 -1.04725,13.715724 -0.40961,1.367168 -1.14102,1.972709 -3.00215,2.485517 -2.2024,0.606835 -9.29542,0.754774 -12.29996,0.256537 z m 40.87813,0.14251 c -5.4133,-0.906055 -11.41527,-5.643917 -14.92858,-11.78439 -3.49661,-6.111285 -5.10557,-12.452451 -5.10348,-20.113657 0.004,-14.8224887 6.15757,-25.781826 16.93514,-30.161141 3.55458,-1.444358 8.42836,-1.925539 12.22504,-1.206963 6.51593,1.233228 12.73754,6.139386 15.95641,12.5826887 2.97634,5.9578266 3.60021,9.4073186 3.61287,19.9760403 0.007,5.434719 -0.31316,8.685096 -1.10594,11.244792 -0.72098,2.327907 -3.89667,8.617915 -5.69284,11.275686 -2.65943,3.935114 -6.29879,6.514232 -10.78612,7.643839 -2.3814,0.599475 -8.87855,0.917014 -11.1125,0.543105 z m 6.13434,-16.436755 c 2.64573,-0.999625 3.98562,-4.852619 4.23705,-12.184067 0.29938,-8.7297497 -1.01556,-15.50802469 -3.50943,-18.0904027 -3.19887,-3.3124064 -6.15615,-0.224798 -7.37595,7.701001 -0.53652,3.486177 -0.54562,12.1898277 -0.0166,15.9110757 0.72311,5.086747 1.96766,6.943809 4.65355,6.943809 0.69661,0 1.60174,-0.126637 2.0114,-0.281416 z m -35.38388,-55.376856 c -3.28066,-0.884802 -5.80241,-3.866023 -6.62719,-7.834697 -0.45953,-2.211214 -0.17634,-6.958089 0.52132,-8.738278 1.12935,-2.881702 3.40787,-5.12508 5.971,-5.87891 1.59412,-0.468836 4.81139,-0.38843 6.43486,0.16082 3.22262,1.090272 5.63803,4.49711 6.20785,8.755909 0.75965,5.677552 -1.31765,10.927241 -5.07586,12.82756 -2.01948,1.021138 -5.16057,1.320199 -7.43198,0.707596 z m 4.6017,-2.912506 c 1.15185,-0.481272 2.68956,-2.31608 3.21453,-3.835588 0.60576,-1.753365 0.80418,-5.226539 0.41235,-7.218137 -0.58485,-2.972745 -1.82296,-4.819603 -3.77884,-5.636825 -1.23791,-0.517231 -2.07916,-0.517231 -3.31707,0 -1.30431,0.544979 -2.10448,1.32617 -2.83266,2.765497 -2.44129,4.825454 -0.91615,12.524868 2.7714,13.990974 0.95817,0.380949 2.53107,0.351579 3.53029,-0.06592 z m 133.83774,2.876766 c -3.96805,-1.116077 -6.52134,-4.818782 -6.85337,-9.938561 -0.29542,-4.555037 0.89932,-8.14743 3.50013,-10.524428 0.9085,-0.83032 1.96311,-1.49638 2.83789,-1.792336 1.62347,-0.54925 4.84074,-0.629656 6.43486,-0.16082 2.5979,0.764056 4.93683,3.133267 5.99319,6.07079 0.68456,1.903615 0.94072,6.420804 0.48783,8.602381 -0.99904,4.812332 -4.32128,7.791147 -8.95852,8.03246 -1.31018,0.06818 -2.53732,-0.03503 -3.44201,-0.289486 z m 4.84552,-3.011929 c 1.33883,-0.614796 1.78093,-1.119419 2.69962,-3.081442 0.69638,-1.487244 0.73977,-1.790702 0.73667,-5.152198 -0.003,-3.176793 -0.0721,-3.724846 -0.62528,-4.954865 -2.40209,-5.341005 -8.28873,-4.789305 -10.00363,0.937547 -0.59655,1.992149 -0.60119,6.027293 -0.009,8.002949 1.15503,3.854744 4.17677,5.637122 7.20183,4.248009 z m -170.91067,2.548131 c -0.18646,-0.584419 -4.64038,-21.091411 -4.64038,-21.365479 0,-0.149906 0.77264,-0.263716 1.78594,-0.263071 l 1.78594,0.0011 1.71979,7.936102 c 0.94589,4.364856 1.78818,7.936219 1.87177,7.936362 0.0836,1.43e-4 0.72079,-2.767942 1.41602,-6.151302 0.69522,-3.383359 1.44342,-6.955234 1.66267,-7.937499 l 0.39862,-1.785938 h 1.63235 1.63234 l 1.57269,7.9375 c 0.86498,4.365624 1.63555,7.93662 1.71239,7.935545 0.0768,-0.0011 0.96346,-3.57295 1.97028,-7.9375 l 1.8306,-7.935545 h 1.29609 c 1.11058,0 1.27633,0.06627 1.15802,0.463021 -0.0759,0.254661 -1.10267,4.689739 -2.28163,9.855729 -1.17895,5.165989 -2.27131,9.903629 -2.42745,10.528089 l -0.2839,1.135381 -1.86352,-0.07705 -1.86351,-0.07705 -1.46358,-7.474479 c -0.80497,-4.110963 -1.5286,-7.474378 -1.60806,-7.474254 -0.0795,1.24e-4 -0.60087,2.232546 -1.15868,4.960938 -0.55781,2.728391 -1.25878,6.121571 -1.55772,7.540399 l -0.54352,2.579688 h -1.82402 c -1.22656,0 -1.85859,-0.108331 -1.92954,-0.330729 z m 44.04296,-10.658735 v -10.989464 l 2.69221,0.0754 2.69221,0.0754 2.26872,7.459806 c 1.24781,4.102894 2.33634,7.524098 2.41898,7.602676 0.0826,0.07858 1.21373,-3.306853 2.51354,-7.523181 l 2.3633,-7.666051 2.3151,-0.0028 2.3151,-0.0028 v 10.980208 10.980208 h -1.85208 -1.85208 l -0.0265,-8.268229 -0.0266,-8.268229 -1.18661,3.704167 c -0.65264,2.037291 -1.72026,5.40628 -2.37248,7.486642 l -1.18588,3.782476 -1.62513,-0.07831 -1.62513,-0.07831 -2.25969,-7.625374 -2.25968,-7.625373 -0.0698,8.485269 -0.0698,8.48527 h -1.58384 -1.58383 z m 24.60625,0.0093 v -10.980208 h 6.08541 6.08542 v 1.322916 1.322917 h -4.10104 -4.10104 v 3.307292 3.307291 h 3.30729 3.30729 v 1.322917 1.322916 h -3.30729 -3.30729 v 3.571875 3.571875 h 4.36562 4.36563 v 1.455209 1.455208 h -6.35 -6.35 z m 16.40416,-0.01209 V -50.5344 l 1.74696,0.07823 1.74696,0.07823 4.47075,7.521938 4.47075,7.521938 v -7.588084 -7.588084 h 1.5875 1.5875 v 10.980208 10.980208 l -1.78594,-0.01164 -1.78593,-0.01164 -4.10104,-7.035953 c -2.25558,-3.869787 -4.30545,-7.2876 -4.55526,-7.59514 -0.43172,-0.531459 -0.45466,-0.182264 -0.46303,7.047606 l -0.009,7.606771 h -1.45521 -1.45521 z m 32.27917,10.858105 c 0,-0.0738 -1.07156,-5.027166 -2.38125,-11.007471 -1.30969,-5.980305 -2.38125,-10.920544 -2.38125,-10.978309 0,-0.05776 0.8127,-0.105027 1.80601,-0.105027 h 1.80601 l 1.64852,7.60677 c 0.90669,4.183724 1.74473,7.844896 1.86231,8.135937 0.24201,0.59905 0.32991,0.241341 2.34033,-9.524999 l 1.2527,-6.085417 1.65352,-0.07877 c 0.90943,-0.04332 1.65352,1.81e-4 1.65352,0.09668 0,0.269259 2.91851,14.997205 3.08068,15.546302 0.0785,0.265628 0.18175,0.443847 0.22955,0.396042 0.0478,-0.04781 0.87599,-3.479824 1.84041,-7.62671 0.96442,-4.146885 1.81543,-7.748151 1.89113,-8.002813 0.10746,-0.361513 0.42996,-0.46302 1.47103,-0.46302 0.95766,0 1.29782,0.0932 1.20716,0.330729 -0.0694,0.181901 -1.23682,5.182526 -2.5942,11.112499 l -2.46795,10.781771 h -1.87983 -1.87983 l -1.41618,-7.342187 c -0.7789,-4.038203 -1.49766,-7.436194 -1.59725,-7.55109 -0.16773,-0.193517 -0.5651,1.554372 -2.55881,11.255256 l -0.74767,3.638021 h -1.91933 c -1.05563,0 -1.91933,-0.06039 -1.91933,-0.134192 z m 21.96042,-10.846016 v -10.980208 h 1.85208 1.85209 v 4.504635 4.504635 l 4.16718,-0.07286 4.16719,-0.07287 0.0725,-4.43177 0.0725,-4.431771 h 1.84568 1.84569 v 10.980208 10.980208 h -1.85208 -1.85209 v -5.027083 -5.027084 h -4.23333 -4.23333 v 5.027084 5.027083 h -1.85209 -1.85208 z"
           id="path4797" /></g><path
         style="fill:#725019;fill-opacity:0.365385;stroke-width:0.352778"
         d="m -329.34076,140.70943 c -3.08294,-1.79274 -5.52,-3.47537 -3.07699,-2.12446 3.64554,1.89354 8.70845,5.39622 3.07699,2.12446 z m 40.4494,1.17315 c 0,-0.097 0.3175,-0.34631 0.70556,-0.55399 0.38805,-0.20768 0.70555,-0.29823 0.70555,-0.20121 0,0.097 -0.3175,0.34631 -0.70555,0.55399 -0.38806,0.20768 -0.70556,0.29823 -0.70556,0.20121 z m 1.76389,-1.05833 c 0,-0.097 0.3175,-0.34631 0.70556,-0.55399 0.38805,-0.20768 0.70555,-0.29823 0.70555,-0.20122 0,0.097 -0.3175,0.34631 -0.70555,0.55399 -0.38806,0.20768 -0.70556,0.29823 -0.70556,0.20122 z m 1.76389,-1.01634 c 0,-0.0822 0.67469,-0.59442 1.49931,-1.13826 0.82461,-0.54385 1.31307,-0.76338 1.08545,-0.48785 -0.43769,0.52981 -2.58476,1.88057 -2.58476,1.62611 z m -49.43388,-2.62446 c -0.43881,-0.55953 -0.42634,-0.572 0.13319,-0.13319 0.33955,0.26629 0.61736,0.5441 0.61736,0.61736 0,0.29035 -0.2897,0.10347 -0.75055,-0.48417 z m 53.8436,-0.58235 c 0.77611,-0.70322 1.72861,-1.44943 2.11667,-1.65827 0.82751,-0.44532 -0.93431,1.12141 -2.46944,2.196 -0.69089,0.48362 -0.56841,0.29692 0.35277,-0.53773 z m -31.50807,0.50018 c -0.44903,-0.19406 -0.71748,-0.51293 -0.59655,-0.70859 0.12093,-0.19567 -0.0222,-0.35577 -0.31814,-0.35577 -0.83984,0 -3.0224,-1.14027 -2.81741,-1.47195 0.10107,-0.16354 0.41892,-0.0622 0.70632,0.2252 1.51938,1.51938 9.2391,1.96721 12.94668,0.75105 1.38002,-0.45267 1.89829,-0.76763 1.5875,-0.96473 -0.28785,-0.18256 0.0694,-0.28929 0.94967,-0.28372 l 1.41112,0.009 -1.22872,1.0501 c -0.67579,0.57757 -1.78704,1.21392 -2.46945,1.41414 -1.76124,0.51673 -9.18496,0.76149 -10.17102,0.33533 z m -25.32266,-2.21088 -0.67204,-0.79375 0.79375,0.67203 c 0.74593,0.63155 0.95435,0.91547 0.67204,0.91547 -0.0669,0 -0.42413,-0.35719 -0.79375,-0.79375 z m 27.63837,0.54478 c 0.43657,-0.0841 1.15094,-0.0841 1.5875,0 0.43657,0.0841 0.0794,0.15288 -0.79375,0.15288 -0.87312,0 -1.23031,-0.0688 -0.79375,-0.15288 z m 2.84427,0.008 c 0.25466,-0.1019 0.55894,-0.0894 0.67616,0.0278 0.11723,0.11722 -0.0911,0.2006 -0.46302,0.18528 -0.41097,-0.0169 -0.49456,-0.10052 -0.21314,-0.21313 z m -5.48339,-0.35626 c 0.34325,-0.0894 0.8195,-0.0836 1.05834,0.0131 0.23884,0.0966 -0.042,0.16981 -0.62408,0.16262 -0.58208,-0.007 -0.7775,-0.0863 -0.43426,-0.17569 z m 6.89451,0.004 c 0.25466,-0.10191 0.55893,-0.0894 0.67615,0.0278 0.11723,0.11723 -0.0911,0.20061 -0.46302,0.18529 -0.41097,-0.0169 -0.49456,-0.10052 -0.21313,-0.21314 z m -8.46667,-0.35278 c 0.25466,-0.10191 0.55893,-0.0894 0.67616,0.0278 0.11722,0.11723 -0.0911,0.20061 -0.46302,0.18529 -0.41097,-0.0169 -0.49456,-0.10052 -0.21314,-0.21313 z m 10.91406,0.007 c 0.24254,-0.0979 0.63941,-0.0979 0.88195,0 0.24253,0.0979 0.0441,0.17793 -0.44098,0.17793 -0.48507,0 -0.6835,-0.0801 -0.44097,-0.17793 z m -36.27461,-1.40023 c -0.81567,-0.88536 -0.81883,-0.90612 -0.0683,-0.44857 0.43282,0.26387 0.8644,0.68161 0.95907,0.92832 0.2526,0.65825 0.0642,0.55678 -0.89076,-0.47975 z m 62.82114,-0.30644 c 0.6582,-0.67909 1.27611,-1.23472 1.37312,-1.23472 0.097,0 -0.36214,0.55563 -1.02035,1.23472 -0.6582,0.6791 -1.27611,1.23472 -1.37312,1.23472 -0.097,0 0.36214,-0.55562 1.02035,-1.23472 z m 1.76389,-1.72069 c 0,-0.0733 0.27781,-0.35107 0.61736,-0.61736 0.55952,-0.43881 0.572,-0.42634 0.13319,0.13319 -0.46086,0.58764 -0.75055,0.77452 -0.75055,0.48417 z m 2.46944,-2.51263 c 0.65821,-0.6791 1.27611,-1.23472 1.37313,-1.23472 0.097,0 -0.36215,0.55562 -1.02035,1.23472 -0.65821,0.6791 -1.27612,1.23472 -1.37313,1.23472 -0.097,0 0.36214,-0.55562 1.02035,-1.23472 z m 37.51966,-2.82222 c -0.001,-1.74625 0.0586,-2.50511 0.13256,-1.68634 0.074,0.81876 0.0749,2.24751 0.002,3.175 -0.0729,0.92748 -0.13344,0.25759 -0.13452,-1.48866 z m -109.8841,2.02847 c -0.43881,-0.55953 -0.42633,-0.572 0.1332,-0.1332 0.58763,0.46086 0.77451,0.75056 0.48416,0.75056 -0.0733,0 -0.35107,-0.27781 -0.61736,-0.61736 z m 74.81879,-2.11667 c 0.65533,-0.82461 1.25513,-1.4993 1.33288,-1.4993 0.24926,0 -1.26257,1.98504 -1.90462,2.50077 -0.34087,0.27381 -0.0836,-0.17685 0.57174,-1.00147 z m -76.74758,-0.52916 -0.67204,-0.79375 0.79375,0.67203 c 0.43656,0.36962 0.79375,0.72681 0.79375,0.79375 0,0.28231 -0.28391,0.0739 -0.91546,-0.67203 z m 78.87934,-2.38125 c 0.41448,-0.58209 0.83298,-1.05834 0.92999,-1.05834 0.097,0 -0.16273,0.47625 -0.57721,1.05834 -0.41448,0.58208 -0.83298,1.05833 -0.92999,1.05833 -0.097,0 0.16273,-0.47625 0.57721,-1.05833 z m 1.59148,-2.24962 c 0.33348,-0.50896 0.67304,-0.92538 0.75456,-0.92538 0.25519,0 -0.56617,1.35959 -0.97342,1.61128 -0.21311,0.13171 -0.11462,-0.17695 0.21886,-0.6859 z m 1.23074,-1.98372 c 0.20768,-0.38805 0.45698,-0.70555 0.55399,-0.70555 0.097,0 0.006,0.3175 -0.20121,0.70555 -0.20768,0.38806 -0.45698,0.70556 -0.55399,0.70556 -0.097,0 -0.006,-0.3175 0.20121,-0.70556 z M -383.61922,84.707932 c -2e-5,-18.43264 0.0428,-26.02499 0.0951,-16.87189 0.0523,9.1531 0.0524,24.23436 3e-5,33.513888 -0.0523,9.27954 -0.0951,1.79064 -0.0952,-16.641998 z m 72.26845,32.395988 c 0.12977,-0.12978 -0.0422,-0.56634 -0.38218,-0.97014 -0.61651,-0.73227 -0.61607,-0.73245 0.1673,-0.0697 0.69326,0.58653 0.79768,1.27577 0.19329,1.27577 -0.1179,0 -0.10819,-0.10618 0.0216,-0.23595 z m 8.56976,-2.16547 c 0.59634,-0.54467 1.38197,-1.45748 1.74584,-2.02847 0.36388,-0.57099 0.86385,-1.16511 1.11104,-1.32028 0.24719,-0.15516 0.4606,-0.63141 0.47424,-1.05833 0.0238,-0.74712 0.0362,-0.74977 0.32798,-0.0707 0.22618,0.52636 0.30948,0.26503 0.32798,-1.02894 0.0136,-0.95397 0.13746,-1.62182 0.27517,-1.48412 0.32096,0.32097 0.3588,6.5521 0.0386,6.35418 -0.13212,-0.0817 -0.33073,-0.002 -0.44137,0.17701 -0.11064,0.17902 -1.03442,0.44893 -2.05285,0.5998 -1.70209,0.25215 -1.76618,0.2942 -0.79335,0.52048 0.9465,0.22015 0.8916,0.25057 -0.5196,0.2879 l -1.57792,0.0417 z m 3.90008,-2.60361 c -0.11261,-0.28142 -0.1962,-0.19783 -0.21313,0.21314 -0.0153,0.37188 0.0681,0.58024 0.18529,0.46302 0.11722,-0.11723 0.12975,-0.4215 0.0278,-0.67616 z m 35.38957,3.10795 c 0,-0.0733 0.27781,-0.35107 0.61736,-0.61736 0.55952,-0.43881 0.572,-0.42633 0.13319,0.13319 -0.46085,0.58764 -0.75055,0.77452 -0.75055,0.48417 z m -54.284,-0.89062 c -0.40551,-0.25686 -0.37957,-0.58456 0.15762,-1.99118 0.35366,-0.92604 0.70471,-1.49864 0.78011,-1.27244 0.0754,0.2262 0.2929,0.31498 0.48333,0.19729 0.19044,-0.1177 0.31017,3.5e-4 0.26608,0.26238 -0.11779,0.69993 0.62054,2.3137 1.15671,2.52819 0.34642,0.13859 0.35219,0.19259 0.0228,0.21339 -0.24254,0.0153 -0.74566,-0.27683 -1.11805,-0.64923 -0.56764,-0.56764 -0.77665,-0.60426 -1.29313,-0.2266 -0.58197,0.42554 -0.57866,0.47218 0.0597,0.84273 0.37167,0.21575 0.51702,0.39467 0.323,0.3976 -0.19403,0.003 -0.57121,-0.13303 -0.83818,-0.30213 z m -42.20489,-17.849758 c -0.53809,-3.03393 -0.73078,-14.99305 -0.24158,-14.99305 0.15597,0 0.77247,0.51593 1.37,1.14652 1.01222,1.06822 1.09799,1.36486 1.25583,4.34306 0.0932,1.75809 0.36786,3.58372 0.6104,4.05695 0.24254,0.47323 1.33575,1.81223 2.42934,2.97555 1.49917,1.59476 1.5945,1.74665 0.3875,0.61736 -0.88042,-0.82378 -1.68927,-1.49777 -1.79739,-1.49777 -0.22053,0 -0.10065,4.711865 0.22888,8.995828 3.591,18.18494 -1.84662,7.33804 -4.24298,-5.644448 z m 124.4271,14.111068 c 0.007,-0.58208 0.0863,-0.7775 0.1757,-0.43425 0.0894,0.34324 0.0836,0.81949 -0.0131,1.05833 -0.0966,0.23884 -0.16982,-0.042 -0.16263,-0.62408 z m -25.209,-1.23851 c 0.30569,-0.7782 0.61972,-1.35098 0.69784,-1.27285 0.16988,0.16988 -0.849,2.68775 -1.08762,2.68775 -0.0913,0 0.0841,-0.6367 0.38978,-1.4149 z m -55.74449,0.5923 c -0.39309,-0.99944 -0.329,-1.51002 0.1317,-1.04931 0.21223,0.21222 0.3266,0.68053 0.25416,1.04069 -0.12702,0.63159 -0.14072,0.63189 -0.38586,0.009 z m 87.8127,-0.0593 c 0.11168,-0.29104 0.33984,-0.52917 0.50702,-0.52917 0.16718,0 0.21259,0.23813 0.10091,0.52917 -0.11169,0.29104 -0.33985,0.52917 -0.50703,0.52917 -0.16718,0 -0.21258,-0.23813 -0.1009,-0.52917 z m -0.93076,-0.72638 c 0,-0.30249 0.15875,-0.45187 0.35278,-0.33195 0.19403,0.11991 0.35278,0.36741 0.35278,0.54998 0,0.18258 -0.15875,0.33196 -0.35278,0.33196 -0.19403,0 -0.35278,-0.2475 -0.35278,-0.54999 z m -5.94152,-2.62501 c 0,-0.48507 0.0801,-0.68351 0.17794,-0.44097 0.0979,0.24253 0.0979,0.63941 0,0.88194 -0.0979,0.24254 -0.17794,0.0441 -0.17794,-0.44097 z M -259.6,106.58019 c 0,-0.19403 0.15388,-0.5909 0.34197,-0.88194 0.18809,-0.29104 0.34197,-0.37042 0.34197,-0.17639 0,0.19403 -0.15388,0.5909 -0.34197,0.88194 -0.18809,0.29104 -0.34197,0.37042 -0.34197,0.17639 z m 0.71804,-2.29305 c 10e-4,-0.48507 0.25021,-1.83445 0.55376,-2.99862 0.40135,-1.539183 0.58403,-4.330328 0.66959,-10.230548 0.10956,-7.55478 0.0839,-7.96803 -0.37199,-5.99722 -0.64202,2.871636 -0.51047,2.363023 -0.29598,-0.17639 0.19803,-2.3446 0.91932,-4.02799 1.62509,-3.79273 0.2172,0.0724 0.59376,1.07444 0.83681,2.22676 0.90408,4.28635 0.44511,10.07065 -1.3279,16.735408 -1.17262,4.40788 -1.69246,5.71052 -1.68938,4.23334 z m 30.198,-16.110848 c -0.12935,-0.12935 -0.21893,-0.72466 -0.19907,-1.32292 l 0.0361,-1.08773 0.28966,1.23233 c 0.30179,1.28396 0.27045,1.57547 -0.1267,1.17832 z m -124.71003,-2.23426 c 0,-0.48507 0.0801,-0.68351 0.17794,-0.44097 0.0979,0.24253 0.0979,0.63941 0,0.88194 -0.0979,0.24254 -0.17794,0.0441 -0.17794,-0.44097 z m 124.5027,-1.6169 c 0.0169,-0.41097 0.10052,-0.49456 0.21313,-0.21313 0.10191,0.25466 0.0894,0.55893 -0.0278,0.67615 -0.11722,0.11723 -0.2006,-0.0911 -0.18528,-0.46302 z m -122.50787,-1.79909 c 1.62798,0.02292 -0.51933,0.216305 0,-4e-5 z m 1.35522,-3.47107 c -2.6865,-0.64711 -4.98553,-1.27756 -5.10897,-1.401 -0.3002,-0.3002 -1.42062,-6.72846 -1.44916,-8.31434 -0.0169,-0.94018 0.22185,-1.47864 0.94752,-2.13679 1.76031,-1.59652 3.949,-2.78944 6.15457,-3.35449 1.19598,-0.30639 2.42375,-0.69491 2.72837,-0.86337 0.70026,-0.38725 7.43586,-1.73705 8.66804,-1.73705 1.05027,0 8.45371,1.823299 10.58305,2.60636 0.53358,0.196222 0.92756,0.231604 1.0062,0.318634 0.16048,0.177624 -0.67792,0.227106 -2.12033,-0.105894 -1.20579,-0.278374 -1.73954,-0.21407 -2.99861,0.36121 -2.02705,0.92619 -2.2658,1.13985 -4.7206,4.22453 -1.15652,1.45329 -2.42027,2.99399 -2.80833,3.42378 -0.89058,1.148593 -6.70042,7.140701 -6.09389,7.80721 0.22779,0.22779 0.34273,0.39923 0.25542,0.38097 -0.0873,-0.0183 -2.35679,-0.56265 -5.04328,-1.20976 z m -7.99186,-1.13195 c -0.48507,-0.0892 -1.06444,-0.31189 -1.28749,-0.49492 -0.53866,-0.44199 -0.25851,-2.74376 0.66851,-5.49264 0.75968,-2.25267 1.32454,-2.59845 1.32454,-0.81083 0,0.88945 0.74869,4.67078 1.27495,6.43927 0.19074,0.641 -0.13053,0.69925 -1.98051,0.35912 z m 97.10742,-0.31633 c 0.83151,-0.2468 0.60717,-2.52802 -0.31636,-3.21694 -0.36252,-0.27042 -0.61944,-0.63922 -0.57093,-0.81955 0.0485,-0.18034 -0.14435,-0.32788 -0.42856,-0.32788 -0.1017,-3.123846 -3.21218,-5.046494 -4.77491,-6.80283 0,-0.43587 -0.55779,-1.26022 -1.2988,-1.91946 -1.51177,-1.34495 -1.06431,-1.50077 1.85214,-0.64501 0.95684,0.28077 2.0563,0.47921 2.44322,0.44098 0.46648,-0.0461 0.96064,0.159254 1.31582,0.861014 0.2946,0.58208 1.03839,2.138636 1.74659,3.302806 1.61243,2.65059 3.4787,8.38511 2.84996,8.75713 -0.14623,0.0865 -0.98025,0.24669 -1.85338,0.35594 -0.87312,0.10924 -1.30728,0.11545 -0.96479,0.0138 z m 32.07801,-1.36576 c 0.007,-0.58208 0.0863,-0.7775 0.1757,-0.43426 0.0894,0.34324 0.0836,0.81949 -0.0131,1.05833 -0.0966,0.23884 -0.16982,-0.042 -0.16263,-0.62407 z m -133.41876,-2.7081 c 0,-0.94069 1.30385,-3.14125 1.99565,-3.36811 0.71662,-0.23501 -0.22168,2.59282 -1.14956,3.46452 l -0.84609,0.79486 z m 69.40902,-7.57924 c 0.24254,-0.0979 0.63941,-0.0979 0.88195,0 0.24253,0.0979 0.0441,0.17794 -0.44097,0.17794 -0.48507,0 -0.68351,-0.0801 -0.44098,-0.17794 z m 2.82223,-0.35278 c 0.24253,-0.0979 0.63941,-0.0979 0.88194,0 0.24253,0.0979 0.0441,0.17794 -0.44097,0.17794 -0.48507,0 -0.68351,-0.0801 -0.44097,-0.17794 z m 1.78593,-0.36013 c 0.25466,-0.1019 0.55894,-0.0894 0.67616,0.0278 0.11723,0.11723 -0.0911,0.20061 -0.46302,0.18529 -0.41097,-0.0169 -0.49456,-0.10052 -0.21314,-0.21313 z m 1.76389,-0.35229 c 0.25466,-0.10191 0.55894,-0.0894 0.67616,0.0278 0.11723,0.11722 -0.0911,0.2006 -0.46302,0.18528 -0.41097,-0.0169 -0.49456,-0.10052 -0.21314,-0.21313 z m -6.92063,-1.34653 c 0.007,-0.58208 0.0862,-0.7775 0.17569,-0.43426 0.0894,0.34324 0.0836,0.81949 -0.0131,1.05834 -0.0966,0.23884 -0.16982,-0.042 -0.16263,-0.62408 z m 9.72081,0.64831 c 0.24253,-0.0979 0.63941,-0.0979 0.88194,0 0.24253,0.0979 0.0441,0.17793 -0.44097,0.17793 -0.48507,0 -0.68351,-0.0801 -0.44097,-0.17793 z m 2.29976,-0.36361 c 0.34325,-0.0894 0.8195,-0.0836 1.05834,0.0131 0.23884,0.0966 -0.042,0.16981 -0.62408,0.16262 -0.58208,-0.007 -0.7775,-0.0863 -0.43426,-0.17569 z m 16.46102,-0.5394 c -0.69041,-1.34405 -2.55068,-3.12144 -3.85592,-3.68413 -0.6791,-0.29276 -2.01856,-0.564643 -3.74514,-0.650733 -2.17412,-0.108405 -2.86502,-0.207696 -1.80857,-0.501008 1.65525,-0.459565 1.67315,-0.08771 1.67315,-0.890049 0,-0.47594 -0.18209,-1.26499 -0.40464,-1.75344 -0.74647,-3.502517 0.92895,-3.977075 -2.96223,-7.89341 -7.09706,-10.920011 -17.85552,-17.244001 -28.73146,-6.86194 -3.38849,3.5292 -4.44399,4.4349 -10.41176,8.93419 -2.32833,1.75541 -4.76457,3.65829 -5.41386,4.22863 -2.59915,3.065105 -6.58082,1.839041 -8.50265,2.49467 -0.83572,0.29133 -1.01639,0.48021 -0.66958,0.7 0.3708,0.235 0.22666,0.09434 -0.23905,0.09856 -1.52713,0.0138 -0.61044,-0.517503 2.03989,-1.570173 5.01317,-1.99116 6.96362,-3.12967 10.44438,-6.09657 3.23684,-2.75899 9.75133,-9.17289 16.18235,-15.9325 7.11696,-7.48059 10.80271,-9.29529 17.96497,-8.84517 3.42642,0.21534 4.61158,0.57245 5.23216,1.57653 0.53022,0.85787 1.24297,5.38002 1.56265,9.91448 0.24091,3.4172 0.51947,4.72007 1.7665,8.26222 0.81426,2.31291 1.72906,4.69416 2.03287,5.29167 1.05615,2.0771 5.70929,8.85387 6.7864,9.88363 0.59609,0.56988 1.08379,1.35113 1.08379,1.73611 0,0.38499 0.24847,0.97453 0.55215,1.31009 0.34526,0.38152 2.97411,4.706136 2.75021,4.844516 -0.19694,0.12171 -3.09995,-4.153446 -3.32699,-4.595446 z m -14.17467,0.19745 c 0.24253,-0.0979 0.63941,-0.0979 0.88194,0 0.24254,0.0979 0.0441,0.17794 -0.44097,0.17794 -0.48507,0 -0.68351,-0.0801 -0.44097,-0.17794 z m 4.05694,-0.37613 c 0.7276,-0.0761 1.91823,-0.0761 2.64583,0 0.72761,0.0761 0.1323,0.13838 -1.32291,0.13838 -1.45521,0 -2.05052,-0.0623 -1.32292,-0.13838 z m -15.32378,-3.15899 c 0.25466,-0.10191 0.55893,-0.0894 0.67616,0.0278 0.11722,0.11722 -0.0911,0.2006 -0.46303,0.18528 -0.41096,-0.0169 -0.49455,-0.10052 -0.21313,-0.21313 z m 3.15295,-0.34543 c 0.24253,-0.0979 0.63941,-0.0979 0.88194,0 0.24254,0.0979 0.0441,0.17793 -0.44097,0.17793 -0.48507,0 -0.68351,-0.0801 -0.44097,-0.17793 z m 2.46944,-0.35278 c 0.24254,-0.0979 0.63941,-0.0979 0.88195,0 0.24253,0.0979 0.0441,0.17794 -0.44098,0.17794 -0.48507,0 -0.6835,-0.0801 -0.44097,-0.17794 z m -98.60773,-10.70247 c 0,-0.6791 0.0726,-0.95691 0.16134,-0.61736 0.0887,0.33954 0.0887,0.89517 0,1.23472 -0.0887,0.33955 -0.16134,0.0617 -0.16134,-0.61736 z"
         id="path4811"
         sodipodi:nodetypes="cccsssssssssssssssssssssssssssssccssssscssssssscssccsccsscssccssssscsscssssssssssssssssssssssssssssssssscsssssssssssscscsccscccssssssssscsssssssscsssssssssssssssssssscsscsssssssccsscsssssscssccssssssssssssssssssssssccsssssscsssscssssssscccssssssssssssccsssssssssssccsssssssssscssssscssssscsscssssscssccsccsscsscsccsscsssscccsccsssssssssssssscccsscsssscsscccsscssssscss" /><g
         id="g5952"
         transform="translate(168.71605,181.47212)" /><path
         style="fill:#800080;fill-opacity:0.365385;stroke:none;stroke-width:1.15046;stroke-linecap:round;stroke-linejoin:bevel;stroke-dasharray:none;stroke-opacity:1"
         d="m -318.14751,45.997419 c 12.74505,-50.7426355 37.98456,-39.676244 37.98456,-39.676244 l -1.12597,9.595905 c 0,0 -24.15452,-5.466151 -36.85859,30.080339 z"
         id="path6086"
         sodipodi:nodetypes="cccc" /><path
         style="fill:#800080;fill-opacity:0.365385;stroke:none;stroke-width:1.15046;stroke-linecap:round;stroke-linejoin:bevel;stroke-dasharray:none;stroke-opacity:1"
         d="M -250.82369,74.138172 C -263.56874,23.395536 -264.80533,11.03739 -264.80533,11.03739 l -8.12817,14.801358 c 0,0 9.40574,12.752934 22.10981,48.299424 z"
         id="path6086-1"
         sodipodi:nodetypes="cccc" /></g></g></svg>
